<?xml version="1.0" encoding="UTF-8"?>
<svg xmlns="http://www.w3.org/2000/svg" xmlns:xlink="http://www.w3.org/1999/xlink" viewBox="0 0 1024 1024">
  <defs>
    <style>
      .cls-1 {
        fill: #7688b0;
      }

      .cls-2 {
        fill: #5850a7;
      }

      .cls-3 {
        fill: #a099df;
      }

      .cls-4 {
        fill: #281f59;
      }

      .cls-5 {
        fill: #5a52ab;
      }

      .cls-6 {
        fill: #483f90;
      }

      .cls-7 {
        fill: #a7c0f9;
      }

      .cls-8 {
        fill: #fff;
      }

      .cls-9 {
        fill: #231a58;
      }

      .cls-10 {
        fill: #4b4094;
      }

      .cls-11 {
        fill: #4b4294;
      }

      .cls-12 {
        fill: #dfc0fe;
      }

      .cls-13 {
        fill: url(#Degradado_sin_nombre_7);
      }

      .cls-14 {
        fill: #564da5;
      }

      .cls-15 {
        fill: #4b4193;
      }

      .cls-16 {
        fill: #675fbd;
      }

      .cls-17 {
        fill: #3e3387;
      }

      .cls-18 {
        fill: none;
        stroke: #231a58;
        stroke-linecap: round;
        stroke-linejoin: round;
        stroke-width: 5px;
      }

      .cls-19 {
        fill: #8277d0;
      }

      .cls-20 {
        fill: #51489f;
      }

      .cls-21 {
        fill: #ddb2e2;
      }

      .cls-22 {
        fill: #cde3ff;
      }

      .cls-23 {
        fill: #a9c3fa;
      }

      .cls-24 {
        fill: #b864b7;
      }

      .cls-25 {
        fill: #c3abf2;
      }

      .cls-26 {
        fill: #5950a8;
      }

      .cls-27 {
        fill: #271f5a;
      }

      .cls-28 {
        fill: #494094;
      }
    </style>
    <linearGradient id="Degradado_sin_nombre_7" data-name="Degradado sin nombre 7" x1="511.93" y1="69.55" x2="511.93" y2="733.1" gradientUnits="userSpaceOnUse">
      <stop offset="0" stop-color="#7b6ecb"/>
      <stop offset="1" stop-color="#dfbbe0"/>
    </linearGradient>
  </defs>
  <g id="Capa_8" data-name="Capa 8">
    <path class="cls-13" d="M511.93,69.55c-244.37,0-443.17,198.8-443.17,443.17,0,60.62,12.24,118.44,34.38,171.12-.1-9.51.1-20.56.92-32.31,2.27-32.18,9.83-76.33,32.98-103.89,41.41-49.3,110.78-71.2,119.72-73.86,0,0,0,0,0,0,3.37-22,8.47-49.15,9.92-56.77-7.43.87-21.88,1.11-34.28-7.39-11.11-7.62-17.9-20.46-20.16-38.15-.42-3.31-.37-6.53.08-9.63,0,0,0,0,0,0-1.44.08-3.59.16-6.16.16-9.89,0-26.05-1.24-32.56-8.8-2.7-3.14-3.53-7.02-2.45-11.55,5.05-21.21,59.29-44.63,68.3-48.39-1.14-5.47-4.84-27.48,2.66-53.36,7.83-27.03,29.95-63.29,90.86-82.57,6.13-1.94,12.12-3.65,17.98-5.15,1.28-2.63,6.41-12.02,15.39-13.85,6.06-1.24,12.46,1.25,19.04,7.36,32.41-3.68,59.6.84,81.18,13.58,27.05,15.97,44.91,44.45,53.1,84.63,0,0,0,0,0,0,6.17,3.08,28.94,15.13,27,24.34-.92,4.36-6.55,6.91-17.62,7.91,2.81,10.8,16.67,69.08,6.69,126.16-2.74,15.65-7.97,33.85-15.85,51.87-.03.12-.06.23-.09.35-.06.23-.18.41-.32.58,0,.02-.01.03-.02.05-12.17,27.45-30.53,54.37-55.7,71-.7.46-1.41.91-2.11,1.36,0,0,0,0,0,0,7.27,3.66,28.17,16.62,50.52,53.06,13.55,22.11,24.98,39.68,35.75,53.38.1.09.18.2.25.32,9.98,12.66,19.41,21.97,29.44,28.43,40.11-16.44,67.93-12.18,84.55-5.32,14.89,6.14,23.41,15.12,26.74,19.22,17.67-44.79,34.38-85.11,38.43-88.91,6.21-5.85,37.01-12.58,79.63-21.9,20.86-4.56,44.5-9.73,67.7-15.39,8.2-2,15.45-3.84,21.84-5.45,27.39-6.93,38.72-9.79,43.08-5.24,3.54,3.7,1.61,10.81-2.72,25.25-8.22,27.39-51.2,128.99-67.89,168.14h27.35c37.38-64.95,58.78-140.21,58.78-220.37,0-244.37-198.81-443.17-443.17-443.17Z"/>
  </g>
  <g id="Capa_9" data-name="Capa 9">
    <path class="cls-3" d="M601.13,235.04s-17.51-12.2,6.75-19.76c24.27-7.56,33.06-5.28,33.06-5.28,0,0,4.57-21.28,39.74-15.47,0,0,51.08-74.03,81.94,7.3,0,0,35.26-7.67,36.58,14.07,0,0,38.32,1.21,19.69,18.02l-35.16,1.7h-58.6l-64.49,2.09-40.44,1.76-19.06-4.41Z"/>
    <path class="cls-3" d="M725.35,337.93s-22.07-22.33,37.37-22.68c0,0,11.61-23.92,39.74-11.61,0,0,5.63-30.6,38.69-29.19,33.06,1.41,37.63,30.25,37.63,30.25,0,0,28.49-8.79,45.72,17.58,17.23,26.38-16.53,19.69-16.53,19.69l-69.28-2.03-78.43,2.78-18.64-2.78-16.27-2.02Z"/>
    <path class="cls-3" d="M79.2,360.7s48.53-30.25,76.67,7.39c0,0,35.61-4.34,33.67,21.04h-56.27l-33.06-2.4-34.29.35,13.28-26.38Z"/>
    <path class="cls-14" d="M986.13,483.66l-29.52,250.96-133.31,141.51-48.64,18.19-191.91-70.57-170.92-62.62-39.24-86.62s38.84-61.98,44.84-64.52c6-2.54,58.65-70.77,58.65-70.77,0,0,33.2-13.01,69.23-50.29.93-.96,1.86-1.92,2.77-2.87,34.39-35.53,55.58-56.38,74.76-49.54,15.43,5.51,25.51,34.91,53.28,58.15,7.69,6.44,16.72,12.41,27.6,17.26,26.73,11.91,56.42-5.99,82.48-31.26,0,0,0,0,.02-.01,17-16.5,32.46-36.14,44.55-52.66,30.6-41.86,46.43-51.71,62.52-31.92,13.11,16.13,35.03,53.05,55.81,72.68,1.96,1.86,3.9,3.55,5.83,5.06,22.41,17.57,31.21,9.83,31.21,9.83Z"/>
    <path class="cls-6" d="M537.84,589.52s4.71-45.37,11.04-45.72,13.72,49.94,13.72,49.94l6.93-1.06s6.43-55.22,11.01-55.57,17.23,67.52,17.23,67.52l8.11-8.44s33.39-66.12,59.06-16.18c0,0,30.25-22.86,37.28,24.62,0,0,15.12-41.5,27.08-58.38,0,0-19.69,7.03-15.83-11.25s20.75-82.22,28.49-80.85c7.74,1.37,33.41,63.28,32,75.23-1.41,11.95-10.2,9.61-10.2,9.61l21.45,45.6,16.01-16s9.66-34.55,14.15-33.5,11.28,27.92,11.28,27.92l10.92-2.43s12.36-59.52,17.9-59.52,15.3,48.01,15.3,48.01l47.3,32.36s13.01,11.61,36.22,23.21c0,0-19.98,122.41-22.58,126.19s-75.54,144.73-75.54,144.73l-247.24,114.45-279.44-33.4-184.48-119.57-92.08-166.75s-11.8-70.14-11.8-71.15,421.88-26.53,421.88-26.53c0,0,34.17,22.46,36.81,22.4s38.02-5.5,38.02-5.5Z"/>
    <path class="cls-28" d="M61.53,538.26s20.75-61.9,27.08-59.79,10.9,28.14,10.9,28.14c0,0,18.64-68.58,29.19-68.93,10.55-.35,24.97,69.28,24.97,69.28,0,0,15.83-55.22,19.34,7.03l8.35,64.47-59.92,4.11h-63.43l3.51-44.31Z"/>
    <path class="cls-5" d="M61.88,543.97s53.11-4.92,92.49,12.31c39.39,17.23,348.09,16.33,348.09,16.33,0,0,152.99,27.54,293.31,86.63,140.32,59.08,166.17,27.64,166.17,27.64l-90.21,131.14-164.59,138.58-177.93,33.4-180.8-26.38-159.32-59.08-89.68-137.31s-48.53-139.12-46.42-145.45c2.11-6.33,8.88-77.81,8.88-77.81Z"/>
    <path class="cls-20" d="M58.45,605.52s33.23-18.99,96.54-25.32c63.3-6.33,509.07-.48,554.44,107.9,45.37,108.39,188.59,125.14,188.59,125.14l-237.4,156.02h-188.86l-206.78-58.56-117.9-82.3s-83.09-135.59-83.09-139.01-5.54-83.87-5.54-83.87Z"/>
    <path class="cls-16" d="M676.11,494.68c-.24,2.94-1.37,5.09-3.78,5.82-11.6,3.51-17.59-15.48-27.43-15.31-9.85.18,7.04,28.14-6.5,33.42-13.54,5.28-26.38-21.93-40.75-26.29-14.37-4.36-37.45,19.52-49.33,16.22-11.86-3.29-.24-22.47-.24-22.47h0c34.39-35.53,55.58-56.38,74.76-49.54,15.43,5.51,25.51,34.91,53.28,58.15Z"/>
    <path class="cls-16" d="M949.09,468.77c-13.07,4.31-29.85-3.91-36.3-10.87-6.58-7.13-11.33-7.65-8.7,1.85,2.64,9.5-2.37,18.99-16.09,9.76-13.71-9.23-9.76-7.91-19.77-5.54-10.03,2.38-3.69-24.26-27.97-7.12-23.88,16.87-53.13,23.62-54.04,23.82,17-16.5,32.46-36.14,44.55-52.66,30.6-41.86,46.43-51.71,62.52-31.92,13.11,16.13,35.03,53.05,55.81,72.68Z"/>
    <path class="cls-19" d="M664.11,400.61s-15.83-2.81-19.17,6.15c-3.34,8.97,103.75,9.14,108.32,2.64s-7.03-5.28-7.03-5.28c0,0-7.56-12.66-26.73-5.98,0,0-24.27-32.71-55.39,2.46Z"/>
    <path class="cls-21" d="M66.76,386.27s24.79-7.37,50.91-2.09,61.19-1.09,69.11,2.09c7.91,3.18,6.86,8.99-22.68,7.67-29.54-1.32-83.09,0-104.72,1.85-21.63,1.85-1.36-9.51-1.36-9.51h8.75Z"/>
    <path class="cls-21" d="M725.35,337.93s5.63,7.74,54.51,7.39c48.89-.35,96.59-1.26,120.63.01,24.04,1.28,33.06-5.64,33.06-5.64,0,0,3.17,1.06-30.25-1.76-33.41-2.81-93.9-.35-121.69,0-27.78.35-59.44-8.09-56.27,0Z"/>
    <path class="cls-21" d="M599.44,232.42s1.58,8.7,27.17,9.23c25.59.53,89.95-5.54,121.07-2.9,31.12,2.64,72.27-2.11,73.06-6.33s-21.63,2.64-46.69,0c-25.06-2.64-70.95-.79-107.09-1.32-36.14-.53-57.24-3.96-67.52,1.32Z"/>
    <path class="cls-3" d="M595.02,296.51s-16.59-2.11-15.36,6.42c1.23,8.53,75.44,8.4,81.42,2.59s4.4-16.35-14.95-10.02c0,0,2.46-16.18-23.21-15.3s-27.9,16.31-27.9,16.31Z"/>
  </g>
  <g id="Capa_7" data-name="Capa 7">
    <path class="cls-25" d="M234.11,407.14c13.67,9.37,30.52,7.27,35.41,6.38-5.78-30.91-5.69-63.48-5.67-66.41-2.47-9.06-8.67-14.11-17.03-14.11-.3,0-.6.01-.91.02-.05.01-.09.01-.13.01h-.05c-1.09.05-2.24.19-3.4.42-12.11,2.37-23.84,13.1-26.69,27.04-.69,3.36-.86,6.92-.39,10.59,2.16,16.81,8.5,28.94,18.87,36.06Z"/>
    <path class="cls-23" d="M505.83,241.16c.4-6.26.21-11.08-3.11-14.85-2.85-3.23-8.09-5.62-16.03-7.25,1.49,5.77,2.42,12.38,2.85,19.9,0,0,0,0,0,0,5.37.59,10.8,1.33,16.29,2.2Z"/>
    <path class="cls-17" d="M543.73,267.62c1.18-5.63-15.16-15.98-25.87-21.26-48.85-9.63-93.66-7.54-131.19-.79,41.74,23.97,55.1,22.39,59.35,19.21,3.66-2.73,2.43-7.93,2.38-8.15-.16-.64.13-1.32.7-1.67.24-.13.5-.2.76-.2.37,0,.75.14,1.03.42.22.2,21.89,20.36,72.49,18.31,1.25-.05,2.44-.12,3.55-.2,13.67-.96,16.41-3.9,16.78-5.67Z"/>
    <path class="cls-25" d="M318.95,549.49c19.72,8.84,47.38,14.4,68.67-8.12-2.34-.41-4.7-.9-7.07-1.45-48.9-11.43-76.42-44.82-90.88-70.82-13.45-24.16-18.42-46.61-19.58-52.61-.07.01-.15.03-.23.04,0,0,0,0,0,0-1.3,6.83-8.73,46.08-11.83,69.77-1.89,14.48,27.89,48.37,60.93,63.19Z"/>
    <path class="cls-7" d="M152.77,739.24s.08.06.13.08c11.51,6.41,20.43,4.63,23.86,3.51-5.24-9.58-8.38-17.26-9.74-20.87-7.95,7.83-12.6,14.68-14.24,17.28Z"/>
    <path class="cls-15" d="M642.59,816.55c-.52-.51-1.04-1.15-1.48-1.96l-178.36-31.94c-.82-.15-1.36-.93-1.22-1.75.15-.82.93-1.36,1.75-1.22l176.78,31.66c-.32-2.1-.16-4.8.88-8.27.15-.5.42-1.32.79-2.41l-112.77-19.32c-.67-.11-1.17-.66-1.24-1.33-.07-.67.32-1.31.94-1.56l9.65-3.83c-.77-.59-1.53-1.21-2.28-1.88-10.6-9.59-24.12-15.78-27.76-17.35-16.78,17.36-44.64,15.17-49.01,14.71-1.48.91-6.53,3.97-14.19,8.19-.62,6.19-.75,15.14.8,17.52,3.96,2.02,48.78,11.12,102.82,20.86,52.01,9.38,91.01,15.49,104.37,16.45-2.17-4.72-.76-10.89.42-14.45-4.61.94-8.5.2-10.91-2.14Z"/>
    <path class="cls-25" d="M568.9,666.51c1.82-.85,3.61-1.64,5.38-2.4-9.55-6.49-18.57-15.49-28.04-27.43-38.93,6.85-59.6,30.59-68.19,43.5,2.82,2.66,11.31,10.68,16.75,16.19,6.58-.6,13.32-.88,20.25-.77,37.82.58,58.69,13.94,69.46,24.87l9.58-4.75c-4.12-2.08-7.02-3.15-7.09-3.17-.78-.28-1.19-1.14-.91-1.93s1.14-1.19,1.93-.91c.63.23,15.57,5.69,26.41,16.71,4.1,4.17,8.27,5.74,12.05,4.54,3.92-1.24,7.02-5.46,7.9-10.77,1.64-9.83-10.41-20.73-19.33-23.28-.8-.23-1.26-1.06-1.03-1.86.23-.8,1.06-1.26,1.86-1.03,1.91.54,3.95,1.44,6,2.61,14.44,1.58,18.8,10.24,23.4,19.41,1.91,3.81,3.89,7.74,6.69,11.45,3.68,4.88,8.21,6.76,11.83,4.91,3.87-1.98,6.4-8.41,3.34-18.33-5.72-18.56-24.35-33.13-24.54-33.28-.66-.51-.78-1.45-.27-2.11.51-.66,1.45-.78,2.11-.27.8.62,19.57,15.29,25.58,34.78.88,2.86,1.33,5.48,1.44,7.85.04,0,.08.01.13.02,2.59-6.72,5.24-13.58,7.92-20.47-1.89-7.27-6.84-17.34-19.64-24.79-.72-.42-.96-1.34-.55-2.06.42-.72,1.34-.96,2.06-.55,11.63,6.76,17.21,15.59,19.88,22.9,2.12-5.43,4.25-10.86,6.36-16.24-1.89-2.55-10.41-13.07-26.78-19.78-17.23-7.05-46.94-11.19-90.67,9.15-.75.35-1.65.02-2-.73-.35-.75-.02-1.65.73-2Z"/>
    <path class="cls-17" d="M466.1,213.7c6.21.32,11.61.83,16.3,1.54-2.57-7.53-6.29-13.32-11.3-17.62-10.22-8.77-26.45-11.65-51.08-9.08-11.71,1.23-20.61,5.86-26.45,13.77-3.89,5.27-6.02,11.45-7.13,17.42,8.87-1.74,43.55-7.91,79.66-6.04Z"/>
    <path class="cls-15" d="M656.64,833.26c.26,0,.49-.02.68-.05,7.3-.87,56.39-17.58,101.8-33.76,51.73-18.43,92.7-33.97,95.31-36.14,2.31-2.63,3.89-9.03,4.64-13.08l-201.99,67.44c-.94,2.32-4.07,11-.44,15.58Z"/>
    <path class="cls-15" d="M865.28,734.08s0,0,0,0c0-.01,0-.02.01-.03,15.97-37.41,60.35-142.18,68.68-169.95,3.67-12.22,5.79-19.83,3.43-22.3-3.15-3.29-16.29.04-40.17,6.08-6.4,1.62-13.66,3.45-21.87,5.46-23.24,5.67-46.9,10.85-67.77,15.41-38.96,8.52-72.6,15.87-78.21,21.15-8.51,8.01-82.05,202.19-85.58,214.04-1.09,3.65-1.2,6.6-.34,8.67.01.02.02.04.03.06.29.67.67,1.25,1.17,1.73,1.98,1.92,5.66,2.2,10.14.85,14.14-37.16,81.12-212.75,85.19-216.48,4.12-3.77,155.23-39.48,185.48-46.6.81-.19,1.62.31,1.81,1.12.19.81-.31,1.62-1.12,1.81-71.07,16.73-178.26,42.65-184.13,45.9-4.04,5.9-51.64,129.2-83.56,213.04l201.34-67.23c.68-1.58,2.62-6.1,5.45-12.73Z"/>
    <path class="cls-25" d="M180.28,742.92c.04.07.06.15.08.22,2.98,5.32,6.61,11.17,10.93,17.2,14.39,20.08,39.69,46.28,78.47,57.05,74.47,20.68,187.23-49.41,188.36-50.12.3-.19.65-.26.99-.22.31.04,31.01,3.71,47.67-14.47.42-.46,1.09-.61,1.67-.38.68.27,16.88,6.8,29.6,18.31,6.73,6.09,14.76,8.42,19.52,5.68,2.82-1.63,4.12-4.91,3.77-9.38,0-.04,0-.09-.01-.13,0-.05-.01-.11-.01-.16,0-.07-.02-.13-.02-.19-.08-.82-.21-1.67-.4-2.57-3.48-16.3-34.4-29.26-34.71-29.39-.77-.32-1.13-1.2-.82-1.97.32-.77,1.2-1.13,1.97-.82,1.33.55,32.69,13.7,36.51,31.54.19.87.32,1.72.42,2.54,2.06,1.88,11.3,9.59,17.76,3.17,2.22-2.21,2.8-6.05,1.64-10.82-2.93-12.03-16.58-28.13-36.11-34.29-.79-.25-1.23-1.1-.98-1.89.25-.79,1.09-1.23,1.89-.98,20.8,6.56,34.93,23.3,38.13,36.45.05.22.08.43.13.65,1.03.5,3.4,1.43,5.48.59,1.76-.7,3.06-2.58,3.85-5.56,1-3.77-.48-13.82-8.74-24.73-8.16-10.78-28.41-28.98-72.3-29.65-7.09-.11-13.98.19-20.72.84-.01,0-.03,0-.04,0,0,0,0,0-.01,0-6.04.58-11.94,1.43-17.74,2.48-.07.02-.14.03-.21.04-14.48,2.66-28.27,6.61-41.72,10.94-.01,0-.02,0-.03.01-6.19,1.99-12.31,4.06-18.39,6.11-27.21,9.19-52.92,17.87-81.05,18.61-.93.03-1.85.04-2.76.04-36.85,0-51.61-20.25-61.07-48.18-43.59-5.38-73.58,8.58-91.1,21.3-4.05,2.94-7.63,5.95-10.77,8.87,1,2.76,4.37,11.58,10.68,22.91.08.09.16.2.22.32Z"/>
    <path class="cls-23" d="M366.96,141.28c-5.88,1.2-9.96,6.52-12.01,9.91,9.16-2.21,17.97-3.88,26.44-5.01-5.1-4.16-9.94-5.81-14.43-4.9Z"/>
    <path class="cls-25" d="M524.08,435.18c4.03-11.71,6.91-23.11,8.7-33.4,10.08-57.58-4.4-116.43-6.77-125.41-.8.05-1.65.1-2.5.13-2.56.1-5.05.15-7.46.15-37.38,0-57.48-11.86-64.43-17-.13,2.38-.94,5.4-3.77,7.53-8.77,6.59-30.89-.39-65.72-20.77-22.32,4.3-41.93,10.19-58.13,16.11-11.01,4.03-21.04,8.27-29.95,12.43,0,0,0,0,0,0,1.56,6.74,7.9,39.81-8.21,73.93-13.9,29.43-.24,71.24,12.17,81.8,2.6,2.22,4.78,2.76,6.46,1.6,4.13-2.83,5.29-12.24,6.64-23.14,2.32-18.76,5.21-42.11,25.34-48.94,22.53-7.65,37.66-2.83,53.67,2.27,13.94,4.44,28.36,9.03,49.75,6.96,3.87-.38,7.9-.84,11.8-1.28,25.43-2.91,51.73-5.91,65.51,9.92,9.51,10.92,11.79,29.71,6.9,57.12,0,0,0,0,0,0Z"/>
    <path class="cls-8" d="M483.06,409.56c10.39-.92,11.62-11.73,11.73-15.48,0,0,0,0,0,0-4.52-.44-11.1.7-20.1,2.28-1.99.35-4.05.71-6.22,1.07.99,3.71,4.49,13.02,14.59,12.13Z"/>
    <path class="cls-23" d="M241.78,295.56c-.63.25-62.64,25.63-67.68,46.78-.85,3.58-.26,6.48,1.8,8.88,7.55,8.77,31.63,7.87,37.03,7.55h0c3.5-14.62,15.97-25.77,28.82-28.28.77-.15,1.54-.27,2.29-.34-2.08-14.2.16-29.15.26-29.8.06-.39.27-.74.59-.98.22-.16,17.29-12.78,46.65-26.58,0,0,.01,0,.02,0,.04-.02.08-.04.12-.06.04-.02.07-.04.11-.05,9.2-4.32,19.6-8.74,31.08-12.94,16.35-5.98,36.17-11.94,58.71-16.28.28-.15.6-.21.91-.17.22-.04.43-.08.65-.12,0,0,0,0,0,0-.89-5.75-3.28-27.34,8-42.63,6.36-8.62,15.97-13.66,28.56-14.98,25.5-2.67,42.46.44,53.36,9.79,5.77,4.95,9.96,11.65,12.71,20.46,9.54,1.77,15.7,4.54,19.21,8.51,4.11,4.66,4.3,10.39,3.84,17.34,2.53.42,5.05.87,7.6,1.36-8.14-38.53-25.42-65.83-51.37-81.16-31.58-18.65-75.71-19.21-131.15-1.66-59.57,18.85-81.19,54.13-88.84,80.4-8.31,28.53-2.44,52.96-2.38,53.2.18.73-.2,1.48-.9,1.76Z"/>
    <path class="cls-7" d="M289.42,823.8h.04c-7.04-.56-13.91-1.67-20.5-3.51-39.66-11.02-65.49-37.78-80.17-58.28-4.13-5.76-7.62-11.37-10.55-16.52-1.67.6-4.77,1.44-8.93,1.44-4.77,0-10.92-1.11-17.88-4.99-.51-.28-1.02-.66-1.52-1.11-.13-.09-.25-.2-.34-.33-14.7-14.29-27.03-97.16-28.44-106.93-.12-.82.45-1.59,1.28-1.7.82-.12,1.59.45,1.7,1.28,3.67,25.46,15.11,90.14,26.4,104.01,2.86-4.49,11.67-16.98,27.76-28.7,17.78-12.95,48.07-27.14,91.95-22.1-2.95-9.24-5.4-19.24-7.94-29.57-1.75-7.14-3.57-14.53-5.61-21.89-14.1-50.85-20.84-61.36-20.91-61.46-.46-.69-.27-1.62.41-2.09.69-.46,1.62-.28,2.08.4.28.41,6.99,10.65,21.32,62.34,2.05,7.4,3.87,14.81,5.63,21.97,10.35,42.12,19.31,78.6,67.22,78.6.85,0,1.71-.01,2.59-.03,27.68-.73,53.18-9.34,80.17-18.46,5.84-1.97,11.71-3.96,17.66-5.88,7.49-27.46,17.86-114.59,17.97-115.47.1-.83.84-1.43,1.67-1.32.83.1,1.42.85,1.32,1.67-.07.58-4.46,37.52-9.61,70.97,1.66,2.93,12.67,21.38,32.15,32.75,4.79-.87,9.65-1.59,14.61-2.14-5.07-5.04-11.72-11.35-14.54-14-2.19,3.56-3.21,5.84-3.25,5.93-.25.57-.8.91-1.38.91-.2,0-.4-.04-.6-.12-.76-.33-1.11-1.22-.78-1.98.05-.11,1.38-3.08,4.26-7.6.07-.2.17-.38.32-.55.02-.02.04-.02.06-.04,8.48-13.03,29.39-37.79,69.12-45.32-10.45-13.54-21.53-30.63-34.53-51.85-24.18-39.44-47.02-50.96-51.05-52.76-15.73,9.18-32.74,13.79-50.87,13.79-5.41,0-10.91-.41-16.51-1.23,0,0,0,0,0,0-10.71,12.05-24.46,18.17-40.23,18.17-10.31,0-21.48-2.61-33.22-7.87-35.67-15.99-64.76-50.41-62.68-66.32.36-2.76.78-5.74,1.24-8.85-12.86,3.96-77.69,25.79-116.93,72.5-31.14,37.08-33.96,105.55-33.02,141.65,0,0,0,0,0,0-.01.01,0,.01,0,.01,29.8,67.46,75.96,126.15,133.41,170.97v-25.16c0-.08.01-.16.02-.24.03-.17.09-.33.17-.47,0-.01,0-.03.01-.04.03-.06.07-.12.12-.18.03-.04.06-.08.1-.11,0,0,.01-.02.02-.03.03-.03.06-.06.09-.08.02-.02.05-.04.07-.05.04-.03.09-.05.13-.08.04-.02.07-.05.11-.07.13-.07.26-.12.41-.15l48.43-11.75h.01Z"/>
    <path class="cls-24" d="M410.15,446.36c-20.78-19.2-60.76-15.01-69.62-13.79,0,0,0,0,0,0,11.65,28.64,42.72,50.08,80.04,51.95.75.04,1.49.07,2.23.08,1.24-16.45-3-29.31-12.65-38.23Z"/>
    <path class="cls-17" d="M272.77,414.41s.01.04.01.06c.08.54,4.24,25.76,19.56,53.25,14.17,25.43,41.1,58.09,88.9,69.26,3.21.75,6.38,1.37,9.54,1.85.04.01.09.02.14.03,24.15,3.68,46.53-.47,66.68-12.4,1.52-.9,3.01-1.85,4.51-2.83,24.85-16.42,42.95-43.12,54.91-70.33,0,0,0,0,0,0,9.43-36.82,8.74-60.79-2.11-73.26-12.74-14.64-38.24-11.73-62.9-8.91-3.91.45-7.95.91-11.85,1.29-22,2.13-37.38-2.76-50.95-7.09-16.2-5.16-30.2-9.62-51.79-2.28-18.34,6.23-21.1,28.54-23.32,46.46-1.44,11.62-2.68,21.66-7.93,25.26-1.66,1.14-5.17,2.42-10.11-1.79-13.34-11.36-27.65-54.22-12.94-85.38,15.26-32.33,9.83-63.68,8.14-71.33-25.39,12.07-41.11,23.05-44.07,25.15-.4,2.99-1.97,16.31-.13,28.58,9.65.09,16.99,6.1,19.75,16.53.04.13.05.27.05.4,0,.35-.36,35.14,5.9,67.48ZM333.19,398.56s0,0,0,0c0,0,0,0,0,0,0-.02.01-.04.01-.05,1.21-8.37,4.17-14.59,8.82-18.53,4.66-3.93,11.06-5.55,18.53-4.67,4.32.52,8.63,1.89,12.81,4.07,9.96,5.2,45.07,21.81,79.25,17.42.02-.01.03-.01.05-.01,5.01-.64,9.54-1.35,13.68-2.03,0,0,.01,0,.02,0,.02,0,.03,0,.05-.01,0,0,.01,0,.02,0,.02,0,.04,0,.06-.01,2.72-.45,5.28-.89,7.7-1.31,9.93-1.73,17.09-2.99,22.2-2.13.09,0,.18.02.27.04,2.04.37,3.74,1.09,5.16,2.27,3.41,2.85,4.89,8.19,4.95,17.86.02,2.66-.25,5.46-.76,8.32-1.11,19.04-9.16,41.02-22.1,60.34-11.52,17.2-24.52,28.87-33.13,29.74-8.09.82-9.52-3.57-10.56-6.77-.59-1.8-1-2.94-2.03-3.44-1.38-.67-4-.31-7.8,1.07-9.83,3.57-10.95,3.13-21.65-1.11-1.3-.51-2.74-1.09-4.37-1.72-2.59-1-3.36-.07-5.29,4.01-1.5,3.19-3.38,7.16-7.95,8.61-1.13.36-2.38.54-3.75.54-4.74,0-10.92-2.18-18.73-6.58-22.89-12.91-36.27-35.37-38.69-64.94-1.77-21.62,2.8-39.33,3.24-40.96Z"/>
    <path class="cls-25" d="M370.12,501.84c9.16,5.17,15.92,7.12,20.09,5.79,3.32-1.06,4.76-4.09,6.14-7.03,1.61-3.41,3.61-7.66,9.1-5.54,1.64.63,3.09,1.21,4.39,1.72,10.36,4.1,10.76,4.26,19.52,1.08,4.73-1.72,7.95-2.02,10.15-.94,2.23,1.09,2.94,3.28,3.57,5.21,1,3.06,1.71,5.28,7.4,4.7,7.51-.76,20.22-12.44,30.93-28.42,8.74-13.05,15.2-27.32,18.72-41.01-4.63,9.67-11.44,19.21-19.67,27.09-11.18,10.71-29.77,23.11-55.84,23.11h-.34s-.03,0-.05,0c0,0,0,0,0,0-.05,0-.09,0-.14,0,0,0,0,0,0,0-1.19,0-2.4-.04-3.64-.1-25.23-1.25-48.18-10.92-64.64-27.2-8.35-8.26-14.64-17.92-18.55-28.18,0,0,0,0,0,0-.1-.16-.17-.33-.2-.53,0-.01,0-.02,0-.04-1.81-4.87-3.1-9.89-3.8-14.95,0,0,0-.02,0-.03-.64,6.51-.95,14.38-.26,22.78,2.39,28.9,14.89,49.92,37.16,62.48Z"/>
    <path class="cls-23" d="M386.12,242.61c29.51-5.3,63.47-7.76,100.38-3.98-.46-7.72-1.49-14.42-3.1-20.18-4.91-.81-10.7-1.39-17.46-1.74-37.52-1.95-73.52,4.89-80,6.2-1.15,8.79-.27,16.62.18,19.7Z"/>
    <path class="cls-4" d="M412.18,444.14c10.32,9.53,14.89,23.14,13.63,40.45,0,0,.01,0,.02,0,24.41-.38,41.91-12.11,52.52-22.25,17.66-16.89,25.48-37.72,25.4-50.87-.05-8.69-1.2-13.35-3.87-15.57-.59-.5-1.29-.88-2.08-1.17-.31,6.68-3.52,16.86-14.47,17.83-.55.05-1.08.07-1.6.07-10.06,0-14.81-8.8-16.25-14.7,0,0,0,0,0,0-3.52.57-7.32,1.15-11.46,1.7,0,0,0,0-.01,0-3.6,11.25-9,17.79-16.07,19.42-1.19.27-2.39.4-3.57.4-9.52,0-18.47-8.02-21.22-10.73-6.97,3.9-13.24,4.77-18.64,2.59-7.25-2.93-10.7-10.47-11.87-13.69-10.68,3.13-18.14,2.57-22.18-1.69-4.89-5.14-3.13-13.97-2.05-17.81-.61-.04-1.22-.06-1.82-.06-5.07,0-9.29,1.41-12.59,4.2-4.11,3.47-6.72,9.1-7.81,16.78v.02c-.24,1.71-.41,3.51-.5,5.42-.41,8.73.93,17.21,3.76,25.18,7.76-1.17,50.14-6.43,72.76,14.47Z"/>
    <path class="cls-8" d="M383.12,394.32c.39-.12.81-.08,1.17.11.36.2.62.53.73.92.03.1,2.85,10.05,10.6,13.17,4.74,1.91,10.46.9,16.99-2.98.61-.36,1.39-.25,1.87.27.12.13,12.02,12.79,22.76,10.3,5.71-1.32,10.22-6.73,13.44-16.08-34.31,3.51-68.8-12.82-78.73-18-3.45-1.8-7-3-10.54-3.57,0,0,0,0,0,0-.89,3-2.82,11.19,1.19,15.41,3.32,3.48,10.41,3.64,20.51.45Z"/>
    <polygon class="cls-15" points="618.62 772.57 648.06 760.71 631.12 757.51 600.94 768.97 618.62 772.57"/>
    <path class="cls-11" d="M511.93,955.9c36.02,0,71.05-4.32,104.59-12.47l-353.56-64.25c71.01,48.4,156.74,76.72,248.97,76.72Z"/>
    <path class="cls-15" d="M586.66,722.77c1.15,1.29,2.16,2.53,3.04,3.68.69.92,1.33,1.84,1.95,2.76l15.03-5.62c-3.15-2.44-6.39-4.49-9.31-6.12l-10.7,5.3Z"/>
    <path class="cls-15" d="M666.54,734.21c-.44.34-.9.64-1.37.88-1.33.68-2.76,1.01-4.21,1.01-2.8,0-5.71-1.24-8.36-3.55l-17.89,7.09,24.2,4.09,4.67-1.77c.97-2.55,1.96-5.14,2.96-7.76Z"/>
    <path class="cls-10" d="M242.75,864.56c4.68,3.58,9.43,7.08,14.25,10.48l366.58,66.61c29.14-7.59,57.12-18.07,83.61-31.14l-464.44-71.71v25.76Z"/>
    <path class="cls-15" d="M661.57,747.25l-2.36-.4-22.7,8.61,16.73,3.16,4.74-1.91c1.16-3.06,2.36-6.22,3.59-9.46Z"/>
    <path class="cls-15" d="M655.92,762.19l-2.36-.45-29.58,11.92,15.02,3.06,14.14-7.1c.89-2.39,1.83-4.86,2.79-7.42Z"/>
    <path class="cls-26" d="M867.69,736.11c-2.95,6.92-4.86,11.36-5.27,12.32-.24,1.69-1.91,12.53-5.79,16.94-4.33,4.92-184.69,69.14-198.95,70.84-.39.05-.88.07-1.48.07-.07,0-.14,0-.21,0,0,0-.01,0-.02,0-.02,0-.03,0-.05,0-12.28-.13-63.62-8.65-109.47-16.94-25.61-4.63-50.95-9.45-69.55-13.24-31.88-6.49-32.71-7.56-33.26-8.26-2.5-3.18-2.13-12.7-1.72-17.8-11.99,6.49-29.14,15.11-48.71,22.97-26.01,10.44-60.4,21.08-92.67,21.19,0,0-.01.01-.03.01l-51.52,12.5,462.87,71.48s.01,0,.01,0c76.15-38.65,139.7-98.65,182.72-172.08h-26.88Z"/>
    <polygon class="cls-27" points="103.14 683.85 103.14 683.84 103.14 683.85 103.14 683.85"/>
    <polygon class="cls-15" points="629.3 741.8 608.27 750.14 630.85 754.4 653.34 745.86 629.3 741.8"/>
    <path class="cls-15" d="M595.41,767.85l30.04-11.4-22.43-4.23-4.11,1.63c-1.06,3.92-2.95,6.46-5.64,7.52-.98.39-1.98.54-2.93.54-1.16,0-2.24-.22-3.16-.51.1,1.71-.05,3.27-.41,4.7l8.62,1.76Z"/>
    <path class="cls-2" d="M443.45,670.81c-2.4,15.25-4.93,29.37-7.23,38.42,11.55-3.66,23.38-7.01,35.7-9.48-14.99-9.62-24.48-22.67-28.47-28.94Z"/>
    <path class="cls-15" d="M651.57,773.77l-7.81,3.93,5.9,1.2c.61-1.65,1.25-3.36,1.91-5.13Z"/>
    <path class="cls-15" d="M648.6,781.75l-9.19-1.87-25.71,12.92,17.64,3.02,15.31-8.8c.61-1.66,1.26-3.42,1.95-5.28Z"/>
    <path class="cls-15" d="M627.39,733.85c-1.11.35-2.24.52-3.38.52-3.89,0-7.95-1.99-11.72-5.82-.94-.96-1.92-1.87-2.93-2.75l-16.08,6.01c4.14,7.01,6.05,13.81,6.04,18.63l2.94-1.17s.05-.02.07-.03l26.18-10.38s0,0,.01,0l21.8-8.64c-.25-.3-.51-.59-.75-.91-2.96-3.93-5-7.99-6.97-11.92-3.69-7.35-6.77-13.45-14.49-16.29,5.93,5.23,10.44,12.46,9.25,19.59-1.07,6.41-4.98,11.57-9.96,13.14Z"/>
    <path class="cls-15" d="M645.03,791.43l-9.04,5.19,6.75,1.16c.63-1.76,1.4-3.9,2.29-6.35Z"/>
    <path class="cls-15" d="M584.13,770.98c-2.43,2.42-5.19,3.35-7.97,3.35-4.32,0-8.67-2.26-11.84-4.66-.36,4.14-2.15,7.34-5.25,9.13-4.67,2.69-11.34,1.78-17.77-2.12l-6.55,2.6,21.04,3.61,34.34-13.03-4.48-.91c-.43.75-.92,1.44-1.53,2.05Z"/>
    <polygon class="cls-15" points="634.63 778.91 618.9 775.7 587.57 788.33 608.69 791.95 634.63 778.91"/>
    <polygon class="cls-15" points="613.55 774.61 595.67 770.97 561.65 783.88 581.91 787.36 613.55 774.61"/>
    <path class="cls-22" d="M315.11,165.53s-.22.16-.63.47c-6.65,5.05-63.18,50.36-48.7,121.87l-21.48,12.48.38,8.1s-55.85,11.91-69.67,44.03l-2.67-8.77,4.49-9.77,10.74-10.89,21.8-13.19,30.25-16.35-.43-26,5.49-35.3,23.61-37.16,26.14-18.93,20.69-10.59Z"/>
    <path class="cls-12" d="M242.32,333.45s-22.25,11.63-12.56,45.01c9.7,33.38,39.38,23.48,39.38,23.48l2.14,12.76-11.98.51-20.31-3.59-15.31-10.15-7.3-17.61-3.68-17.05,1.6-7.38,10.13-17.81,10.6-7.37,7.28-.82Z"/>
    <path class="cls-22" d="M258.12,489.87s-88.05,32.41-114.78,77.77c-26.73,45.37,11.18,163.83,11.18,163.83l-3.15,7.16-5.19-5.69-12.95-41.97-10.82-59.1s-8.58,37.2-5.09,102.64l-14.18-39.21,3.1-41.32,6.5-50.38,18.29-47.92,35.03-33.72,21.01-14.7,36.43-19.32,35.21-13-3.34,8.82.7,5.63,2.06.48Z"/>
    <path class="cls-12" d="M178.2,712.27s43.85,130.73,175.11,100.98l-40.55,8.99h-15.96l-24.31-2.58-28.35-10.65-24.46-14.15-21.09-22.67-15.22-20.97-16.48-31.96,11.3-6.98Z"/>
    <path class="cls-12" d="M275.36,431.32s-7.81,45.53-8.74,75.89l-8.68-12.36-1.41-8.75,7.16-44.48,4.78-25.89,2.82,3.93,4.07,11.65Z"/>
    <path class="cls-1" d="M150.78,740.81l18.6,3.56,8.94-1.78-11.42-23.34s-10.47,8.9-10.33,9.62-5.79,11.93-5.79,11.93Z"/>
  </g>
  <g id="Capa_2" data-name="Capa 2">
    <path class="cls-18" d="M250.94,416.25c-.81,3.27-2.61,5.96-4.95,7.49-1.34.88-2.86,1.37-4.47,1.37-5.47,0-9.9-5.73-9.9-12.8,0-2.29.46-4.44,1.28-6.29.68-1.57,1.61-2.94,2.73-4,1.64-1.58,3.68-2.52,5.89-2.52"/>
    <path class="cls-18" d="M258.58,401.51c-6.3,0-11.57,5.49-12.97,12.87-.24,1.24-.36,2.54-.36,3.88,0,1.92.26,3.76.74,5.48,1.8,6.56,6.76,11.27,12.59,11.27,7.24,0,13.13-7.24,13.33-16.27"/>
  </g>
  <g id="Capa_6" data-name="Capa 6">
    <path class="cls-18" d="M527.15,274.79s18.2,63.95,7.12,127.25c-11.08,63.3-59.73,158.3-153.37,136.41-93.64-21.89-109.6-123.75-109.6-123.75,0,0-50.39,12.41-57.54-43.43-4.34-33.94,43.17-56.27,51.61-24.35,0,0-.44,34.91,5.93,67.79"/>
    <path class="cls-18" d="M245.78,331.52c-2.49-14.59.01-30.94.01-30.94,0,0,116.06-86.6,272.56-55.66,0,0,57.06,27.96,5.1,30.07-51.96,2.11-73.59-18.73-73.59-18.73,0,0,8.41,33.08-67.55-11.5"/>
    <ellipse class="cls-9" cx="372.58" cy="321.68" rx="10.29" ry="17.67"/>
    <ellipse class="cls-9" cx="498.39" cy="326.96" rx="10.29" ry="17.67"/>
    <path class="cls-9" d="M341.31,280.18c2.96,2.81,7.47,3.18,11.03,1.19,4.67-2.62,12.33-6.4,18.69-7.08,9.89-1.06,22.95,3.17,25.85-7.91,2.9-11.08-18.99-16.09-35.61-9.36-13.96,5.65-27.55,15.95-19.97,23.17Z"/>
    <path class="cls-9" d="M521.71,286.92c-2.57,2.45-6.49,2.77-9.59,1.03-4.05-2.27-10.72-5.56-16.24-6.15-8.59-.92-19.94,2.75-22.46-6.88-2.52-9.63,16.5-13.98,30.94-8.14,12.13,4.91,23.94,13.86,17.35,20.13Z"/>
    <path class="cls-18" d="M292.29,274.09s10.13,36.16-7.81,74.14c-17.94,37.98,8.53,93.73,20.84,85.29,12.31-8.44.55-61.35,31.62-71.9,40.89-13.88,55.95,13.87,103.08,9.3,47.13-4.57,105-20.2,78.34,83.23"/>
    <path class="cls-18" d="M360.37,376.8c4.3.51,8.45,1.9,12.29,3.9,9.81,5.12,45.45,22.06,80.19,17.57,40.8-5.28,52.24-14.42,52.41,13.19.17,27.61-32.01,77.2-84.77,74.56-52.75-2.64-88.24-41.57-86.34-81.59,1.23-26.01,16.02-28.83,26.22-27.62Z"/>
    <path class="cls-18" d="M214.15,360.2s-46.79,3.95-41.51-18.21c5.28-22.16,68.58-47.83,68.58-47.83,0,0-24.46-98.47,92.22-135.4,116.68-36.93,169.7,10.16,184.91,86.16"/>
    <path class="cls-18" d="M352.04,153.44s11.45-26.65,32.83-6.2"/>
    <path class="cls-18" d="M334.67,398.86s-20.15,73.35,34.71,104.3c33.9,19.12,23.95-11.17,35.52-6.68,14.85,5.75,14.53,6.6,24.97,2.81,17.91-6.5,5.97,10.55,20.75,9.06,15.92-1.61,51.52-46.31,53.89-88.88"/>
    <path class="cls-18" d="M338.5,431.34s92.29-16.04,85.7,54.77"/>
    <path class="cls-18" d="M360.37,376.8s-11.09,29.77,23.2,18.96c0,0,6.77,24.79,29.81,11.08,0,0,27.77,29.98,39.47-8.57"/>
    <path class="cls-18" d="M466.65,396.21s2.65,16.08,16.54,14.85c13.89-1.23,13.1-18.29,13.1-18.29"/>
    <path class="cls-18" d="M268.57,415.22s-8.61,44.66-12.04,70.9c-3.43,26.23,86.78,108.91,134.07,54.22"/>
    <path class="cls-18" d="M258.12,474.94s-75.61,20.91-119.92,73.66c-44.31,52.75-32.02,166.48-32.02,166.48"/>
    <path class="cls-18" d="M167.63,719.25s25.77,78.49,101.73,99.59c75.97,21.1,189.56-50.29,189.56-50.29,0,0,31.56,4.04,48.97-14.95,0,0,16.48,6.57,29.15,18.02,13.05,11.8,29.01,9.1,25.32-8.18-3.69-17.28-35.61-30.47-35.61-30.47"/>
    <path class="cls-18" d="M562.79,766.37s11.97,11.81,20.28,3.54c9.22-9.17-6.2-38.51-35.08-47.61"/>
    <path class="cls-18" d="M585.39,758.97s9.11,5.67,12.1-5.58c2.99-11.25-13.19-55.22-82.47-56.27-69.28-1.06-120.1,37.46-179.98,39.04-59.88,1.58-62.5-49.59-76.92-101.64-14.43-52.05-21.11-61.9-21.11-61.9"/>
    <path class="cls-18" d="M122.62,633.37s14.23,98.74,29.54,107.27c15.47,8.62,26.77,2.95,26.77,2.95"/>
    <path class="cls-18" d="M150.78,739.62s35.13-62.66,121.61-51.48"/>
    <path class="cls-18" d="M452.29,595.02s-10.6,89.5-18.22,116.48"/>
    <path class="cls-18" d="M587.51,711.14s15.12,5.45,25.85,16.35c10.73,10.9,20.75,3.52,22.51-7.03,1.76-10.55-10.55-22.16-20.4-24.97"/>
    <path class="cls-18" d="M643.52,679.62s19.12,14.77,25.06,34.03c5.93,19.26-8.04,27.7-17.8,14.77-9.76-12.92-9.67-28.29-29.3-30.3"/>
    <path class="cls-18" d="M681.07,700.61c-2.22-8.89-8.12-18.93-20.45-26.1"/>
    <path class="cls-18" d="M672.56,722.64c-1.5-.02-2.56-.33-2.56-.33"/>
    <path class="cls-18" d="M689.28,679.62s-33.94-51.65-119.75-11.74"/>
    <line class="cls-18" x1="584.21" y1="722.3" x2="597.4" y2="715.76"/>
    <path class="cls-18" d="M442.62,666.46s11.37,21.39,33.44,34.04"/>
    <path class="cls-18" d="M458.44,527.71s25.28,9.34,52.44,53.65c27.17,44.31,45.54,69.79,66.56,83.03"/>
    <path class="cls-18" d="M471.76,688.1s18.87-43.61,75.11-53.06"/>
    <path class="cls-18" d="M476.06,680.39s11.64,10.9,18.18,17.57"/>
    <polyline class="cls-18" points="300.14 822.74 241.24 837.04 241.24 873.71 645.74 947.21"/>
    <line class="cls-18" x1="241.24" y1="837.04" x2="747.4" y2="915.21"/>
    <path class="cls-18" d="M925.84,553.62s-180.77,42.55-184.81,46.25-85.07,216.6-85.07,216.6l204.99-68.45s-1.58,11.96-5.45,16.35c-3.87,4.4-183.23,68.58-198,70.34-14.77,1.76-209.78-34.11-212.69-37.81-2.9-3.69-1.15-19.53-1.15-19.53"/>
    <path class="cls-18" d="M860.95,748.02s64.18-149.21,74.47-183.5c10.29-34.29,7.65-29.28-60.4-12.66-68.05,16.62-137.69,28.49-146.66,36.93-8.97,8.44-82.3,202.31-85.99,214.71-3.69,12.4,3.72,16.26,13.58,12.97,0,0-5.67,12.39,0,18.3"/>
    <line class="cls-18" x1="463.01" y1="781.17" x2="642.13" y2="813.24"/>
    <line class="cls-18" x1="562.92" y1="766.49" x2="562.82" y2="766.53"/>
    <polyline class="cls-18" points="652.89 730.83 629.13 740.24 602.87 750.65 597.63 752.73"/>
    <polyline class="cls-18" points="541.44 775.01 529.22 779.85 555.96 784.43 582.09 788.91 631.62 797.4 643.73 799.48 643.74 799.48"/>
    <line class="cls-18" x1="591.05" y1="731.03" x2="609.67" y2="724.07"/>
    <line class="cls-18" x1="555.96" y1="784.43" x2="664.72" y2="743.15"/>
    <line class="cls-18" x1="582.09" y1="788.91" x2="659.13" y2="757.88"/>
    <line class="cls-18" x1="608.93" y1="793.51" x2="654.31" y2="770.71"/>
    <line class="cls-18" x1="631.62" y1="797.4" x2="647.86" y2="788.07"/>
    <line class="cls-18" x1="584.86" y1="767.23" x2="650.61" y2="780.63"/>
    <line class="cls-18" x1="602.88" y1="750.65" x2="657.94" y2="761.04"/>
    <line class="cls-18" x1="629.14" y1="740.24" x2="663.61" y2="746.07"/>
    <line class="cls-18" x1="866.69" y1="734.61" x2="956.61" y2="734.61"/>
    <path class="cls-18" d="M384.87,244.29s-10.38-52.49,34.99-57.24c45.37-4.75,66.07,8.11,68.25,53.25"/>
    <path class="cls-18" d="M384.58,221.65s39.5-8.62,81.44-6.45c41.94,2.18,42.31,12.61,41.2,27.7"/>
  </g>
  <g id="Capa_11" data-name="Capa 11">
    <path class="cls-27" d="M511.93.79C229.16.79-.07,230.02-.07,512.79s229.23,512,512,512,512-229.23,512-512S794.7.79,511.93.79ZM511.93,955.79c-244.66,0-443-198.34-443-443S267.27,69.79,511.93,69.79s443,198.34,443,443-198.34,443-443,443Z"/>
  </g>
</svg>