<?xml version="1.0" encoding="UTF-8"?>
<svg xmlns="http://www.w3.org/2000/svg" xmlns:xlink="http://www.w3.org/1999/xlink" viewBox="0 0 1024 1024">
  <defs>
    <style>
      .cls-1 {
        stroke: #ecf9ff;
      }

      .cls-1, .cls-2, .cls-3 {
        fill: none;
      }

      .cls-1, .cls-3 {
        stroke-linecap: round;
        stroke-linejoin: round;
        stroke-width: 5px;
      }

      .cls-4 {
        fill: #a099df;
      }

      .cls-5 {
        fill: #281f59;
      }

      .cls-6 {
        fill: #c64e85;
      }

      .cls-7 {
        fill: #8b7dd1;
      }

      .cls-8 {
        fill: #a7c0f9;
      }

      .cls-9 {
        fill: #fff;
      }

      .cls-10 {
        fill: #231a58;
      }

      .cls-11 {
        fill: #45388e;
      }

      .cls-12 {
        fill: #fffdff;
        opacity: .4;
      }

      .cls-13 {
        fill: #5047a6;
      }

      .cls-14 {
        fill: #dfc0fe;
      }

      .cls-2 {
        stroke: #fffdff;
        stroke-miterlimit: 10;
        stroke-width: 10px;
      }

      .cls-15 {
        fill: #ecf9ff;
      }

      .cls-16 {
        fill: url(#Degradado_sin_nombre_7);
      }

      .cls-17 {
        fill: #443a8c;
      }

      .cls-18 {
        fill: #42368a;
      }

      .cls-19 {
        fill: #3e3387;
      }

      .cls-3 {
        stroke: #231a58;
      }

      .cls-20 {
        fill: #ddb2e2;
      }

      .cls-21 {
        fill: #6a5ec4;
      }

      .cls-22 {
        fill: #685cc3;
      }

      .cls-23 {
        fill: #42368c;
      }

      .cls-24 {
        fill: #cde3ff;
      }

      .cls-25 {
        fill: #a9c3fa;
      }

      .cls-26 {
        fill: #b864b7;
      }

      .cls-27 {
        fill: #c3abf2;
      }

      .cls-28 {
        fill: #5449a4;
      }

      .cls-29 {
        fill: #271f5a;
      }
    </style>
    <linearGradient id="Degradado_sin_nombre_7" data-name="Degradado sin nombre 7" x1="512" y1="68.13" x2="512" y2="760.26" gradientUnits="userSpaceOnUse">
      <stop offset="0" stop-color="#7b6ecb"/>
      <stop offset="1" stop-color="#dfbbe0"/>
    </linearGradient>
  </defs>
  <g id="Capa_5" data-name="Capa 5">
    <path class="cls-16" d="M512,68.13c-244.75,0-443.87,199.12-443.87,443.87,0,91.9,28.07,177.36,76.09,248.26,6.74-12.06,23.92-39.72,46.76-54.03,27.85-17.45,134.79-48.27,147.04-51.77,1.64-14.09,4.79-26.93,5.64-30.28-13.54-15.23-23.93-33.84-30.96-55.46-2.78-8.54-4.83-16.97-6.34-25-6.02.75-29.05,2.61-44.65-10.33-6.58-5.46-10.92-12.83-12.98-22-1.56.2-4.24.47-7.45.47-6.51,0-15.2-1.1-21.06-6.08-4.27-3.63-6.4-8.76-6.33-15.26.25-24.42,54.14-65.71,61.59-71.3-.91-4.73-4.45-26.26.31-52.32,4.97-27.18,20.23-65.04,64.7-91.02,26.2-15.31,58.39-24.94,90.63-27.11,33.65-2.26,64.64,3.46,89.63,16.55,34.72,18.19,54.79,49.17,58.09,89.61,0,0,0,0,0,0,7.91,4.83,12.17,10.12,12.99,14.82.67,3.88-.22,6.89-2.67,8.96-2.62,2.21-7.05,3.24-13.48,3.06,5.43,21.41,9.06,43.77,10.85,66.12,5.29,1.48,26.94,9.53,23.76,41.64-3.21,32.42-21.98,41.98-26.34,43.78-.69,4.5-1.45,8.93-2.32,13.24,0,.05-.01.09-.02.13-7.56,38.14-21.8,69.25-41.75,90.88-6.25,6.77-12.98,12.57-20.19,17.38,0,0,0,0,0,0,10.91-.03,37.38,2.64,90.76,21.28,77.05,26.9,149.09,39.57,192.71,33.91.59-.08,1.16.2,1.47.7.21.34.26.74.18,1.12,11.44-1.56,51.81-8.47,71.36-30.06,23.04-25.44,20.95-31.69.06-52.23-20.07-19.74-81.92-70.25-88.35-75.5-5.43.92-39.09,5.04-82.55-24.43-20.49-13.89-21.64-27.22-19-35.96,1.57-5.19,4.86-10.02,9.21-14.26-10.96-7.11-71.18-46.84-86.28-70.64-8.79-13.85-10.48-27.01-4.3-33.54,5.14-5.44,14.33-5.06,25.22,1.02,11.05,6.18,28.8,21.39,45.96,36.1,9.9,8.49,19.25,16.5,26.78,22.32,10.61,8.2,13.31,8.55,13.88,8.46.15-.43.23-2.53-6.25-10.28-4.87-5.82-12-13.18-19.56-20.97-12.87-13.27-27.47-28.32-34.69-39.83-10.21-16.27-8.79-31.6-2.26-37.76,5.2-4.9,12.93-4.33,21.21,1.58,15.7,11.19,41.78,43.19,59.03,64.36,5.13,6.29,9.66,11.86,12.96,15.7,0,0,0,0,0,0,1.57-4.17,3.72-7.8,6.51-10.59,4.34-4.35,12.3-8.58,25.61-3.97,30.03,10.41,47.21,36.2,56.34,56.01,8.81,19.11,12.01,36.49,12.61,40.09,36.01,23.69,88.03,65.14,103.13,77.3,2.93-20.54,4.44-41.52,4.44-62.86,0-244.75-199.12-443.87-443.87-443.87Z"/>
  </g>
  <g id="Capa_4" data-name="Capa 4">
    <path class="cls-4" d="M727.81,323.87s5.26-13.73,46.1-8.11c0,0,6.04-20.76,38.36-7.09,0,0,13.91-56.93,91.18-29.96l20.5,51.24-35.74,1.84h-79.36l-63.51-1.84-16.26-1.58-1.29-4.5Z"/>
    <path class="cls-4" d="M448.69,211.53s-49.05,5.61-71.47-1.23c-22.42-6.83-22.95-15.59,27.15-19.97,0,0,26.8-24.52,71.3-10.77,0,0-2.8-37.58,72.88-38.1s64.38,39.68,64.38,39.68c0,0,25.3,5.24,20.27,23.12l-74.14,7.63-88.29-.79-22.07.44Z"/>
    <path class="cls-4" d="M87.46,381.49s56.76-39.76,80.23,7.74c0,0,35.04-14.52,59.21,14.57l-86.19,1.75h-65.31l6.1-16.32,5.96-7.74Z"/>
    <path class="cls-7" d="M205.18,573.81s36.26-38.45,57.33-20.58,35.52,35.3,92.01,48.88c68.52,16.47,177.11-13.56,197.61-9.41,20.5,4.15,36.99,8.25,58.69-13.36,26.23-26.13,32.34-25.1,51.68-2.76,20.63,23.83,31.62,3.02,53.61-6,25.76-10.57,26.63,16.12,64.64,26.81,40.78,11.47,82.51,14.71,82.51,14.71l5.26,66.22-137.69,95.12-325.31-29.25-140.32-30.36-54.66-119.35-5.34-20.66Z"/>
    <path class="cls-21" d="M227.96,592.69s8.41-9.25,74.1,10.2,206.97-19.45,275.86,0c68.9,19.45,124.7-9.46,164.86-.53s44.09,4.29,83.38,7.4c39.29,3.11,71.45,25.17,71.45,25.17l7.15,56.07-148.93,88.87-291.21-20.9-176.23-19.97-74.1-69.24s-1.05-54.26,0-56.89,13.66-20.18,13.66-20.18Z"/>
    <path class="cls-28" d="M526.03,646.51s150.91,33.54,232.73-9.46c81.82-42.99,120.88-131.91,156.09-131.39,35.21.53,54.13,17.87,54.13,17.87l2.1,147.71-34.69,78.27s-210.74,2.63-212.85,2.63-170.8-33.11-170.8-33.11l-51.84-49.27,25.12-23.26Z"/>
    <path class="cls-11" d="M766.29,669.76s12.61-45.68,33.11-13.88c0,0,11.04-17.08,15.5-3.42,0,0,16.29-59.39,33.37-4.99,0,0,6.31-23.1,29.69-22.19s41.52,41.29,41.52,41.29l-43.09,71.47-116.32,23.12-136.12-43.09s92.33-25.06,95.13-27.07c2.8-2.01,47.21-21.24,47.21-21.24Z"/>
    <path class="cls-28" d="M71.82,488.67s32.93-38.19,55.71-38.19,56.93,75.5,91.62,115.09c34.69,39.59,81.58,88.68,121.02,84.11l-13.11,88.8-102.6,113.65-57.43-11.17-70.4-86.36-61.25-143.04,8.67-85.2,27.77-37.69Z"/>
    <path class="cls-22" d="M618.31,683.31s207.59-26.1,344.76-26.85l-136.91,228.39-214.41,81.99-56.68-50.45-32.58-162.39,95.82-70.67Z"/>
    <path class="cls-11" d="M78.48,628.03s10.25-35.3,20.23-37.05,16.47,46.25,16.47,46.25c0,0,10.86-21.72,19.09-2.28,0,0,11.74-67.97,32.41-2.8,0,0,8.23-24.7,21.55,17.17,0,0,14.36-24.7,35.91,0,0,0,9.81-12.79,22.07,19.8,0,0,12.79-35.56,41.87,7.36l-92.19,167.91-102.61-116.15-26.3-88.02,11.49-12.18Z"/>
    <path class="cls-13" d="M87.39,646.8s68.26-3.15,169.51,36.51l-70.83,132.22-78.77-35.65s-41.34-97.54-40.29-98.59,20.39-34.49,20.39-34.49Z"/>
    <path class="cls-17" d="M99.29,679.72s45.76-3.29,96.61,25.41l-42,71.71-54.61-67.18v-29.94Z"/>
    <path class="cls-18" d="M737.43,718.34s108.61-39.59,194.1-23.47l-94.34,159.24s-138.39,79.18-139.45,79.88-71.12,15.42-71.12,15.42l-46.6-161.52,6.31-36.44,151.09-33.11Z"/>
    <path class="cls-20" d="M75.99,404.13s29.43-.51,63.77-3.66,108.26,2.45,116.67,7.36,19.13,13.66-185.43,8.41l4.99-12.1Z"/>
    <path class="cls-4" d="M145.15,259.38s33.05-3.44,49.34,10.23c0,0-1.05-39.94,48.61-42.04s56.76,31.01,56.76,31.01c0,0,37.17-11.04,57.08,12.09l-41.84,20.24-27.33,2.89-6.25,11.3-22.39,8.41-149.11-4.91,6.95-28.75,28.18-20.45Z"/>
    <path class="cls-20" d="M110.93,303.85s19.45-8.15,62.01-2.63c42.57,5.52,97.75,6.83,102.74,2.63s.79-2.63-9.72-7.62-2.89-10.25,20.76-10.25,14.45-3.15,42.83.53l-15.54,11.11s-17.31-2.96-21.77,6.76-13.4,11.91-58.86,11.87-106.41,2.36-125.08,1.29l2.63-13.68Z"/>
    <path class="cls-20" d="M448.69,211.53s29.43-11.56,82.69-8.06c53.26,3.5,86.26-7.63,101.82-.66,15.55,6.97-41.55,11.52-83.95,13.27s-100.55-4.55-100.55-4.55Z"/>
    <path class="cls-4" d="M652.47,258.74s-13.1-1.75-8.54-5.96c4.55-4.2,45.2-23.1,64.12-18.21,18.92,4.89,25.15,2.11,47.79,0s17.38,5.5,35.25,11.68c17.87,6.18,25.93,2.44,23.82,9.91-2.1,7.48-133.22,6.07-162.44,2.57Z"/>
    <path class="cls-20" d="M927.72,334.12s-16.47,5.56-67.62,3.46-85.04-4.11-106.46-3.46-38.17-1.1-24.54-11.26,43.06,3.5,61.28,2.45,43.45-11.49,69.72-3.82,65.52,4.17,65.52,4.17l2.1,8.45Z"/>
  </g>
  <g id="Capa_3" data-name="Capa 3">
    <path class="cls-25" d="M553.1,344.82s0,0,0,0c1.14-8.93.16-14.94-3.04-18.83-4.6-5.58-14.37-7.37-28.75-8.35,1.68,6.68,2.55,14.22,2.64,22.55,0,0,.01,0,.02,0,11.11.92,20.81,2.54,29.12,4.62Z"/>
    <path class="cls-26" d="M486.93,594.64c1.19-.32,2.37-.65,3.54-1.01,0,0,0,0,0,0-14.35-21.04-35.7-32.26-63.49-33.37-16.97-.67-31.36,2.83-36.63,4.33,0,0,0,0,0,0,21.3,23.32,61.1,39.48,96.58,30.05Z"/>
    <path class="cls-29" d="M375.15,546.55v-.04s0,0,0,0c0,.01,0,.03,0,.04Z"/>
    <path class="cls-27" d="M493.51,595.82c-.07.03-.14.05-.21.07-.02,0-.05.02-.07.02-.02,0-.04.01-.05.02-1.79.58-3.62,1.12-5.48,1.61-7.25,1.92-14.68,2.81-22.1,2.82-37.78,0-75.37-23.09-88.59-49.68-.71-1.42-1.33-2.8-1.86-4.13.62,15.8,4.65,44.32,24.54,60.19,12.36,9.86,20.97,14.04,27.08,13.15,3.33-.49,6.06-2.5,8.86-6.52,6.28-9.04,13.7-5.43,19.66-2.53,1.1.54,2.15,1.04,3.18,1.48,6.12,2.59,15.54,2.15,21.01-.97,2.88-1.65,6.22-2.01,9.4-1.02,3.7,1.15,6.8,3.99,8.73,7.98,1.1,2.28,2.68,3.6,4.7,3.91,3.34.5,9.64-1.33,20.62-13.04,14.11-15.05,21.11-34.13,20.92-56.88-.91,2.81-2.14,5.63-3.67,8.43-8.56,15.63-25.37,28.22-46.66,35.11Z"/>
    <path class="cls-23" d="M498.07,313.5c2.48.12,4.87.22,7.18.32,4.29.19,8.29.36,12.01.57-2.93-9.17-7.57-16.47-13.93-21.77-13.18-11-34.16-13.97-62.34-8.83-11.95,2.18-20.48,7.68-25.34,16.34-3.63,6.47-4.86,14.05-4.88,21.36,8.98-1.88,49.35-9.75,87.3-7.99Z"/>
    <path class="cls-27" d="M251.38,509.39s.01.03.01.05c0,.03.01.05.01.08,1.81,9.1,5.9,16.31,12.23,21.56,14.38,11.93,36.32,10.35,42.19,9.67-5.11-29.39-3.05-52.74-2.86-54.71-.95-15.01-13.65-23.66-25.76-23.66-.33,0-.67.01-1,.02-12.26.49-26.39,10.46-25.85,36.96.07,3.56.42,6.91,1.03,10.03Z"/>
    <path class="cls-27" d="M584.48,529.76c5.73-2.93,20.1-12.94,22.83-40.53,2.82-28.45-14.56-36.33-20.53-38.18h0c1.74,23.95,1.35,47.82-1.24,70.47-.32,2.78-.67,5.52-1.06,8.24Z"/>
    <path class="cls-25" d="M276.08,459.4c1.33-.05,2.66-.01,3.99.13.15-4.37.66-16.79,2.06-30.11.03-.29.14-.56.33-.79.24-.29,15.64-18.97,44.91-38.95.18-.21.42-.38.7-.47,17.37-11.78,39.54-23.96,66.25-33.06,6.08-2.07,12.24-3.93,18.47-5.58-2.32-6.71-10.29-33.1.25-51.9,5.32-9.49,14.55-15.49,27.42-17.83,29.1-5.3,50.91-2.11,64.8,9.48,7.07,5.89,12.15,14.02,15.22,24.26,16.1,1.02,26.46,2.89,31.91,9.51,3.81,4.62,4.97,11.48,3.64,21.5,0,0,0,0,.01,0,7.87,2.16,14.39,4.74,19.63,7.52-3.72-38.35-23.14-67.76-56.31-85.14-48.69-25.52-123.28-21.11-177.35,10.49-43.44,25.39-58.37,62.34-63.25,88.86-5.3,28.83-.22,51.97-.16,52.2.13.58-.09,1.18-.57,1.54-.61.45-60.89,45.3-61.14,69.5-.06,5.56,1.72,9.92,5.27,12.94,7.64,6.49,21.44,5.48,25.99,4.94-.47-2.85-.74-5.86-.8-9.01-.58-28.67,15.12-39.47,28.73-40.02Z"/>
    <path class="cls-19" d="M587.24,376.41c1.59-1.34,2.13-3.35,1.64-6.14-.72-4.12-4.64-8.78-11.88-13.09-.25-.07-.47-.21-.66-.39-20.32-11.75-65.43-20.73-137.44-8.77-14.33,2.38-28.57,5.92-42.35,10.54,33.21,18.32,42.55,17,45.15,14.5,2.59-2.49.37-8.49-.7-10.6-.34-.65-.15-1.46.45-1.89.49-.36,1.14-.38,1.64-.08,44.47,21.64,55.77,19.44,58.55,16.2,3.22-3.75-1.77-12.81-3.96-15.99-.37-.53-.36-1.25.04-1.76.29-.38.73-.59,1.19-.59.17,0,.34.03.5.09,51.63,18.38,80.36,24.26,87.82,17.97Z"/>
    <path class="cls-25" d="M415.7,349.81c7.51-1.9,15.1-3.49,22.71-4.75,33.09-5.5,60.5-6.64,82.55-5.09-.11-8.39-1.05-15.9-2.81-22.52-4.03-.23-8.36-.43-13.03-.63-2.31-.1-4.71-.21-7.19-.32-38.49-1.79-79.53,6.44-87.1,8.05.49,11.5,3.68,21.79,4.87,25.26h0Z"/>
    <path class="cls-27" d="M572.58,381.6c-14.39-1.13-37.24-7.34-70.2-18.93,2.38,4.41,5.26,11.66,1.55,15.98-5.83,6.79-25.08,2.26-58.81-13.86.95,3.18,1.54,7.66-1.33,10.43-5.86,5.64-22.55.62-51.05-15.35-25.12,8.84-46.08,20.39-62.64,31.58,0,0,0,0,0,0,.55,6.96,3.24,50.19-11.52,81.42-12.61,26.68,3.67,71,16.71,80.62,3.96,2.92,5.81,1.22,6.41.67,3.6-3.3,5.14-10.37,6.91-18.56,3.83-17.68,9.08-41.89,41.22-45.68,22.16-2.61,37.69,2.24,52.71,6.92,14.95,4.67,29.07,9.07,48.64,5.7,3.22-.56,6.38-1.12,9.48-1.67,25.46-4.54,45.57-8.13,57.12.34,5.14,3.77,8.17,9.65,9.25,17.96.27,2.05.51,3.99.75,5.83,1.76,13.78,3.03,23.73,5.28,24.49.64.22,2.2-.32,5.89-4.05.83-4.26,1.57-8.55,2.22-12.9,0,0,0,0,0,0-.09-.38-.03-.77.16-1.09,0,0,0,0,0,0,7.25-49.9,2.75-104.71-8.7-149.6-.02-.09-.04-.18-.04-.26Z"/>
    <path class="cls-8" d="M611.5,774.17c.81-.19,1.61.31,1.8,1.12,5.09,21.9,9.54,44.37,13.31,65.42,12.14,1.7,132.16,18.05,167.92,5.2,5.8-2.08,10.84-12.14,14.3-28.38-9.57,1.39-16.96,2.12-19.79,2.38.7,3.81,1.54,7.68,2.55,11.63.21.8-.28,1.62-1.08,1.82-.12.03-.25.05-.37.05-.67,0-1.28-.45-1.45-1.13-9.49-37.24-4.96-68.26.51-87.72,4.37-15.53,9.89-26.19,12.64-30.96,0-.04.02-.08.02-.12-44.32,4.75-115.29-8.01-190.95-34.43-68.38-23.87-92.18-21.24-95.1-20.77,0,0,0,0-.01,0-1.1.66-2.23,1.28-3.36,1.89-4.08,2.86-3.81,8.78-3.45,16.22.16,3.42.33,6.95.12,10.69l-.05.92c-.71,13.36-2.37,44.64-57.23,54.77-5.69,1.05-11.28,1.54-16.73,1.54-47.26,0-84.53-36.29-93.15-53.85-3.87-7.88-4-20.56-2.81-32.78-16.19,4.67-118.67,34.53-145.09,51.09-22.84,14.3-40.37,43.28-46.45,54.27,33.72,49.01,77.04,90.93,127.2,123.05-3.73-44.33-12.22-105.37-12.31-106.02-.11-.82.46-1.58,1.28-1.69.83-.11,1.58.46,1.7,1.28.09.66,8.87,63.88,12.51,108.45,68.3,42.91,149.04,67.75,235.49,67.75,43.34,0,85.24-6.24,124.86-17.88-2.02-16.56-11.72-92.22-27.94-162.02-.19-.81.31-1.62,1.12-1.8Z"/>
    <path class="cls-29" d="M810.54,817.06c-2.65,12.93-7.62,28.5-16.45,31.67-10.42,3.74-27.44,5.12-46.78,5.12-47.65,0-109.42-8.32-121.6-10.03,0,0,0,0,0,0,7.83,44.16,12.63,81.54,14.08,93.3,77.58-23.35,146.28-67.42,199.65-125.73-10.02,2.49-20.18,4.34-28.89,5.67h0Z"/>
    <path class="cls-27" d="M717.23,446.19c-5.21.74-19.76-11.49-43.06-31.46-17.05-14.61-34.68-29.72-45.47-35.76-9.45-5.28-17.52-5.88-21.58-1.58-4.26,4.5-4.47,15.49,4.66,29.87,14.91,23.49,77.51,64.62,86.03,70.16,10.72-9.25,26.43-15.24,39.34-15.35,4.03-.03,7.55.49,10.5,1.47,0,0,0,0,0-.01-4.28-14.08-5.3-31.17-1.53-44.18,0,0,0,0,0,0-3.39-3.86-8.41-10.03-14.18-17.11-17.15-21.05-43.07-52.86-58.44-63.81-7.01-4.99-13.36-5.66-17.42-1.84-5.74,5.41-6.29,19.6,2.74,33.98,7.05,11.24,21.53,26.16,34.3,39.33,19.28,19.88,29.19,30.46,26.11,35.08-.45.68-1.14,1.1-2,1.21Z"/>
    <path class="cls-27" d="M845.44,498.66c-.11-.74-11.45-75.09-67.07-94.36-9.51-3.29-17.08-2.2-22.51,3.25-2.94,2.95-5.1,7-6.56,11.73-.03.09-.06.18-.08.28-.01.01-.02.03-.02.05-4,13.25-2.64,31.59,2.14,45.56,3.49,2.05,5.63,5.06,6.13,8.86.15,1.16.13,2.37-.07,3.61,2.31,3.26,4.76,5.44,7.31,6.45,4.85,1.95,8.74,1.7,11.54-.75,6.36-5.53,7.46-22.09,2.73-41.21-.2-.8.29-1.62,1.1-1.82.81-.2,1.62.29,1.82,1.1,3.85,15.57,5.19,36.48-3.68,44.19-.58.51-1.28,1-2.08,1.43,1.8,3.93,8.24,16.01,22,22.31.75.35,1.08,1.24.74,1.99-.25.55-.8.88-1.36.88-.21,0-.42-.04-.62-.14-15.05-6.89-21.77-19.87-23.59-24-.83.19-1.74.3-2.73.3-1.98,0-4.3-.43-6.98-1.5-2.54-1.01-4.96-2.91-7.21-5.63-3.33,8.27-13.68,17.18-30.93,21.63-.81.21-1.62-.28-1.83-1.08-.21-.8.28-1.62,1.08-1.83,18.08-4.67,28.05-14.19,29.64-22.1,0-.09.03-.19.05-.28.19-1.1.23-2.17.1-3.18-.39-2.93-2.16-5.27-5.07-6.87,0,0,0,0,0,0-2.91-1.6-6.96-2.47-11.89-2.47-.12,0-.23,0-.35,0-18.1.15-43,13.1-47.99,29.58-3.37,11.15,2.79,22.42,17.81,32.61,45.37,30.76,80.62,23.91,80.97,23.84.44-.09.9.02,1.25.3.68.55,67.92,55.29,89.1,76.12,21.56,21.21,24.38,29.52.06,56.38-22.14,24.45-68.1,30.49-75.45,31.32-5.85,10.3-24.74,48.69-15.88,101.73,5.33-.47,31.85-3.07,56.01-9.57,56.19-62.91,94.76-141.88,107.87-229.07-13.06-10.54-67.72-54.27-104.83-78.6-.36-.23-.6-.61-.66-1.04Z"/>
    <path class="cls-5" d="M375.21,534.78c.04.15.06.32.04.48,0,0,0,.01,0,.01.45,4.3,1.93,9.04,4.44,14.08,2.18,4.38,5.04,8.66,8.48,12.75,3.95-1.22,19.63-5.61,38.93-4.83,20.08.8,47.77,7.63,66.35,35.43,0,0,0,0,0,0,20.15-6.72,36-18.68,44.07-33.42,4.17-7.6,5.93-15.34,5.16-22.31,0-.07-.02-.15-.03-.23-.02-.16-.04-.32-.06-.47,0,0,0,0,0-.01,0-.02,0-.03,0-.05-.2-1.54-.54-3.03-1-4.47-3.65-11.44-11.39-12.89-24.35-11.11,0,0,0,0,0,0,.65,3.38,1.59,11.27-2.09,17.36-2.22,3.67-5.73,6.06-10.42,7.1-1.34.29-2.63.44-3.87.44-2.98,0-5.68-.85-8.05-2.55-6.06-4.34-8.17-12.97-8.8-16.49,0,0,0,0,0,0-.28.05-.57.09-.85.13-5.71.82-11.52,1.08-17.25.93,0,0,0,0,0,0-1.85,11.03-5.87,17.65-11.98,19.67-1.35.45-2.75.65-4.15.65-8.74,0-17.81-7.71-20.58-10.27-7.1,3.91-13.79,4.96-19.9,3.1-7.67-2.32-12.15-8.53-13.79-11.25-5.66,2.49-10.11,2.66-13.25.5-2.79-1.92-3.85-5.23-4.24-7.9,0,0,0,0,0,0-2.29,3.53-3.22,7.82-2.8,12.71,0,0,0,0,0,0Z"/>
    <path class="cls-9" d="M494.56,540.55c2.63,1.88,5.83,2.42,9.51,1.61,3.86-.85,6.73-2.78,8.5-5.72,3.18-5.26,2.25-12.44,1.69-15.35,0,0,0,0,0,0-3.38.54-7.09,1.26-11.13,2.04-4.88.95-10.3,1.99-16.15,2.92,0,0,0,0,0,0,.59,3.17,2.49,10.87,7.58,14.51Z"/>
    <path class="cls-27" d="M343.17,689.15c8.35,17.02,44.51,52.18,90.37,52.18,5.31,0,10.73-.47,16.27-1.49,52.54-9.71,54.11-39.33,54.78-51.98l.05-.93c.2-3.59.03-7.04-.13-10.38-.25-5.14-.46-9.85.81-13.56,0,0,0,0,0,0-14.22,6.52-29.99,9.79-47.22,9.79-8.38,0-17.11-.78-26.19-2.33-33.27-5.68-60.76-18.94-81.72-39.4-1.4-1.36-2.77-2.76-4.1-4.19,0,0,0,0,0,0-2.46,10.22-10.47,46.93-2.93,62.3Z"/>
    <path class="cls-9" d="M383.96,527.48c2.42,1.66,6.29,1.21,11.52-1.33.74-.36,1.64-.05,2,.69.04.08,4.23,8.44,12.71,10.99,5.55,1.67,11.77.53,18.47-3.39.59-.34,1.34-.25,1.82.23.13.13,12.99,12.83,22.5,9.69,4.91-1.62,8.23-7.32,9.9-16.94-27.07-1.36-51.39-11.17-51.98-11.41-2.36-.96-4.74-1.66-7.09-2.14-2.35-.47-4.67-.7-6.91-.7-6.39,0-12.12,1.89-16.09,5.57,0,0,0,0,0,0-.04,1.66.11,6.65,3.15,8.73Z"/>
    <path class="cls-19" d="M345.88,622.4c.44.18.75.54.88.97,0,0,0,0,0,0,21.02,23.18,49.66,37.95,85.67,44.11,29.41,5.03,55.16,1.7,76.92-9.86.02-.01.03-.02.04-.02.05-.03.09-.05.14-.08.13-.08.24-.17.37-.25.11-.06.22-.11.34-.14.01,0,.02-.01.03-.02.01,0,.02,0,.03-.01.8-.42,1.57-.87,2.36-1.33,0,0,.01,0,.01-.01.01,0,.03-.02.04-.02.14-.12.3-.21.47-.27,0,0,0,0,0,0,.02,0,.04-.02.06-.02,8.84-5.24,16.98-11.87,24.41-19.92,20.26-21.96,33.16-51.91,40.26-85.06,0,0,0,0,0,0-2.13,1.69-4.03,2.5-5.83,1.89-4.03-1.36-4.99-8.85-7.3-26.95-.23-1.84-.48-3.78-.75-5.83-.97-7.46-3.6-12.67-8.05-15.93-10.51-7.71-31.04-4.05-54.82.19-3.1.55-6.27,1.12-9.49,1.67-20.29,3.49-34.74-1.02-50.05-5.79-14.72-4.59-29.94-9.34-51.46-6.81-30.02,3.53-34.8,25.6-38.64,43.33-1.88,8.69-3.51,16.2-7.82,20.14-.9.82-2.39,1.78-4.44,1.78-1.59,0-3.52-.58-5.79-2.25-14.04-10.36-31.06-55.93-17.64-84.32,13.54-28.63,12.05-67.78,11.37-78.18,0,0,0,0,0,0-25.64,17.8-40.01,34.23-42.16,36.77-1.39,13.45-1.87,25.88-2,29.8,11.52,2.35,22.05,11.55,22.9,25.99,0,.09,0,.17,0,.25-.04.39-4.01,39.8,9.62,81.65,7,21.51,17.12,39.7,30.3,54.52ZM372.23,535.37v-.02c-.86-9,2.6-14.66,5.4-17.68.16-.17.32-.34.51-.51,0,0,.02-.02.02-.02.04-.05.09-.1.14-.15.02-.02.04-.05.06-.07,7.54-7.34,20.89-8.84,33.65-3.68h.01c.32.13,28.02,11.35,56.92,11.35,4.6,0,9.22-.28,13.77-.94.8-.11,1.59-.23,2.37-.35,6.35-.97,12.22-2.11,17.47-3.12,4.47-.87,8.63-1.67,12.47-2.25h.02s.02,0,.04,0c.08-.02.16-.03.24-.04,0,0,0,0,.01,0,14.73-2.19,24.66-.99,29.11,12.93.52,1.63.9,3.3,1.12,5.03,0,.04.01.08.02.12,4.34,30.8-2.54,56.12-20.48,75.25-8.76,9.34-16.08,14.07-21.79,14.07-.5,0-.99-.04-1.47-.11-3.02-.46-5.42-2.39-6.95-5.57-1.56-3.24-4.01-5.52-6.91-6.42-2.38-.74-4.87-.47-7.02.76-6.28,3.59-16.68,4.09-23.66,1.13-1.1-.47-2.23-1.01-3.32-1.54-5.94-2.89-11.07-5.39-15.89,1.54-3.26,4.7-6.72,7.17-10.89,7.78-6.98,1.02-16.32-3.35-29.38-13.77-28.58-22.79-25.97-68.62-25.59-73.69,0,0,0-.02,0-.02Z"/>
    <path class="cls-24" d="M330.88,283.26s-37.81,53.23-22.04,120.24l-26.38,25.13s-56.68,43.4-63.89,73.17c0,0-5.01-4.17-3-13.48s19.75-32.43,19.75-32.43l41.12-36-1.59-24.7,6.36-44.09,10.86-25.23,16.71-22.88,20.78-19.08.74-.64h.58Z"/>
    <path class="cls-24" d="M338.62,670.29s-116.18,28.04-147.72,72.18c-25.63,35.88-28.95,46.05-28.95,46.05l-19.48-25.73,26.29-34.96,18.18-17.01,12.94-7.7,31.67-13.04,80.44-26.36,26.54-7.82.1,14.4Z"/>
    <path class="cls-14" d="M355.84,634.24s-5.15,33.06-2.69,69.62l-9.57-10.4-4.16-11.19v-14.14l1.35-24.91,4.55-19.44,10.53,10.46Z"/>
    <path class="cls-14" d="M279.45,462.38s-17.52,3.39-17.52,32.12,8.6,37.05,42.49,37.09l3.13,10.44-20.53.73-17.34-4.22-14.2-14.42-4.94-11.54-2.42-14.89,4.57-20.25,7.99-12.58,11.04-3.42,7.71.93Z"/>
    <path class="cls-14" d="M604.29,378.84s19.33,42.36,105.46,90.59l-11.79,9.86-26.63-18.07-46.08-36.48-15.17-14.62-6.49-17.49v-9.38l.69-4.41Z"/>
    <path class="cls-14" d="M689.19,494.64s31.98,50.26,98.73,44.75c0,0,116.84,82.89,118.25,110.8,1.37,26.96-39.65,68.94-103.24,65.02l43.68-11.94,20.5-11.74,21.9-22.77,3.68-11.39.18-11.04-9.99-11.91-41.34-37.49-52.91-44.15-23.3-.35-28.65-5.98-20.15-11.46-16.93-11.49-8.23-9.01-4.59-11.28,2.41-8.57Z"/>
  </g>
  <g id="Capa_2" data-name="Capa 2">
    <circle class="cls-12" cx="512" cy="858.38" r="59.05"/>
    <path class="cls-3" d="M307.56,542.03s-57.66,9.65-58.71-42.64c-1.05-52.29,53.69-45.81,55.62-13.31,0,0-16.82,158.19,127.71,182.89,144.53,24.7,175.27-156.61,141.9-287.47"/>
    <path class="cls-3" d="M392.89,358.23c67.01,37.71,49.45,3.55,49.45,3.55h0c87.4,42.57,56.57-1.93,56.57-1.93,66.92,23.83,94.25,26.28,91.44,10.16-2.8-16.11-50.45-40.29-151.7-23.47-15.79,2.62-30.42,6.45-43.87,11.03-72.85,24.83-111.17,72.01-111.17,72.01-1.75,16.64-2.09,31.65-2.09,31.65"/>
    <path class="cls-3" d="M249.91,509.7s-34.79,6.06-34.53-19.16,61.75-70.69,61.75-70.69c0,0-21.02-92.93,64.12-142.69,85.14-49.75,227.36-36.28,236.16,78.58"/>
    <ellipse class="cls-10" cx="386.63" cy="447.47" rx="10.64" ry="16.09"/>
    <ellipse class="cls-10" cx="530.98" cy="447.47" rx="10.64" ry="16.09"/>
    <path class="cls-10" d="M359.12,401.07c2.95,2.8,7.45,3.17,10.99,1.18,4.65-2.61,12.29-6.38,18.62-7.05,9.85-1.05,22.86,3.15,25.75-7.88,2.89-11.04-18.92-16.03-35.47-9.33-13.91,5.63-27.44,15.89-19.89,23.08Z"/>
    <path class="cls-10" d="M562.28,405.94c-2.56,2.44-6.47,2.76-9.55,1.03-4.04-2.27-10.68-5.54-16.18-6.13-8.56-.91-19.86,2.74-22.38-6.85-2.51-9.59,16.44-13.93,30.82-8.11,12.08,4.89,23.84,13.81,17.28,20.06Z"/>
    <path class="cls-3" d="M411.46,514.63s37.49,15.42,71.47,10.51c33.99-4.91,53.43-14.72,60.09,6.13,6.66,20.85-11.56,53.08-55.71,64.82-44.15,11.74-93.72-15.42-108.96-46.07s9.28-45.02,33.11-35.39Z"/>
    <path class="cls-3" d="M387.71,563.82s69.85-23.7,105.14,30.65"/>
    <path class="cls-3" d="M379.34,518.07s-1.6,18.37,16.8,9.44c0,0,10.51,21.55,33.28,8.23,0,0,29.42,29.45,35.21-9.71"/>
    <path class="cls-3" d="M485.26,524.79s2.49,22.51,19.13,18.83,11.03-24.24,11.03-24.24"/>
    <path class="cls-3" d="M328.52,390.64s4.72,47.69-11.31,81.59c-16.03,33.9,13.14,94.34,25.49,83.04,12.35-11.3,1.57-58.47,47.3-63.85,43.88-5.17,61.75,19.45,101.43,12.61,39.68-6.83,70.16-15.02,74.1,15.35,3.94,30.37,4.02,37.78,14.62,26.98"/>
    <path class="cls-3" d="M373.76,535.13s-4.34,49.38,25,72.78c22.86,18.23,31.53,15.77,38.1,6.31s14.19-3.42,21.02-.53,16.82,2.1,22.34-1.05c5.52-3.15,12.61-.79,16.03,6.31,3.42,7.09,12,8.06,27.77-8.76,15.77-16.82,24.79-40.91,20.07-74.14"/>
    <path class="cls-3" d="M345.32,623.78s-12.6,47.46-3.49,66.03,53.26,61.66,108.26,51.5c55.01-10.16,55.36-41.69,56.06-54.31s-3.02-23.94,4.52-28.44"/>
    <path class="cls-3" d="M339.42,655.63s-118.56,33.66-147.64,51.88c-29.08,18.22-49.31,59.23-49.31,59.23"/>
    <path class="cls-3" d="M513.68,656.88s21.98-5.17,96.26,20.76c74.28,25.93,147.5,39.94,193.4,33.99,0,0-32.89,48.81-14.67,120.28"/>
    <path class="cls-3" d="M801.85,713.82s51.94-5,75.42-30.93c23.47-25.93,21.37-33.28,0-54.31-21.37-21.02-88.99-76.03-88.99-76.03,0,0-35.61,7.47-82.12-24.07s1.58-64.69,31.01-64.93c29.43-.24,23.82,28.59-12.09,37.86"/>
    <path class="cls-3" d="M697.96,479.3s-71.16-45.57-87.45-71.24c-16.29-25.67-5.52-44.07,18.92-30.4,24.44,13.66,83.82,73.58,88.55,66.48s-44.93-48.09-60.44-72.79c-15.5-24.7-4.2-49.14,16.82-34.16,21.02,14.98,60.59,67.36,73.47,81.81"/>
    <path class="cls-3" d="M780.44,441.77c6.3,25.49,3.15,51.51-16.29,43.71-3.06-1.22-5.86-3.85-8.32-7.46"/>
    <path class="cls-3" d="M750.1,466.2c-9.93-28.33-6.04-75.37,28.76-63.32,57.16,19.81,68.06,95.57,68.06,95.57,42.74,28.02,107.82,81,107.82,81"/>
    <path class="cls-3" d="M774.19,486.28s6.03,16.5,23.33,24.43"/>
    <path class="cls-3" d="M638.75,941.13s-9.88-85.97-28.37-165.5"/>
    <path class="cls-3" d="M786.21,818.52s50.46-3.96,79.89-17.63"/>
    <path class="cls-3" d="M623.95,842.05s131.35,19.02,169.63,5.27c9.38-3.37,14.01-23.05,15.69-31.56"/>
    <path class="cls-3" d="M262.51,779.88s9.62,69.01,12.96,114.13"/>
    <path class="cls-3" d="M582.61,532.21s22.69-7.45,26.19-42.83c3.5-35.39-23.69-40.3-23.69-40.3"/>
    <path class="cls-3" d="M414.74,351.6s-23.3-60.31,25.97-69.29c52.86-9.63,81.77,8.45,81.77,59.27"/>
    <path class="cls-3" d="M409.26,323.35s45.65-10.35,88.74-8.35,60.96.89,56.36,31.66"/>
    <path class="cls-29" d="M512,0C229.23,0,0,229.23,0,512s229.23,512,512,512,512-229.23,512-512S794.77,0,512,0ZM512,955c-244.66,0-443-198.34-443-443S267.34,69,512,69s443,198.34,443,443-198.34,443-443,443Z"/>
    <g>
      <g>
        <rect class="cls-1" x="258.01" y="163.18" width="75.68" height="40.29" rx="6.31" ry="6.31"/>
        <rect class="cls-15" x="333.69" y="175.1" width="10.16" height="16.47" rx="1.48" ry="1.48"/>
      </g>
      <g>
        <path class="cls-15" d="M580.47,185.13c0,2.81-.17,5.23-.51,7.25-.34,2.02-.98,3.86-1.9,5.5-1.17,2.02-2.67,3.58-4.52,4.68-1.85,1.1-3.91,1.65-6.17,1.65-2.61,0-4.94-.74-7.01-2.21-2.07-1.47-3.62-3.51-4.67-6.12-.53-1.42-.92-3-1.17-4.72-.25-1.72-.37-3.59-.37-5.59,0-2.59.14-4.92.41-6.99s.7-3.86,1.29-5.35c1.01-2.47,2.48-4.35,4.41-5.64s4.23-1.94,6.9-1.94c1.76,0,3.37.29,4.81.86,1.44.57,2.7,1.41,3.79,2.52,1.09,1.11,2.01,2.47,2.76,4.1,1.3,2.83,1.95,6.83,1.95,12.01ZM573.42,184.61c0-3.14-.19-5.7-.57-7.7-.38-2-1.01-3.5-1.9-4.52-.89-1.02-2.12-1.53-3.7-1.53-2.26,0-3.83,1.14-4.72,3.42s-1.32,5.79-1.32,10.54c0,3.22.19,5.86.57,7.92s1.01,3.61,1.9,4.67c.89,1.05,2.1,1.58,3.62,1.58s2.81-.55,3.7-1.65c.89-1.1,1.52-2.66,1.88-4.7.36-2.04.54-4.71.54-8.02Z"/>
        <path class="cls-15" d="M611.75,185.13c0,2.81-.17,5.23-.51,7.25-.34,2.02-.98,3.86-1.9,5.5-1.17,2.02-2.67,3.58-4.52,4.68-1.85,1.1-3.91,1.65-6.17,1.65-2.61,0-4.94-.74-7.01-2.21-2.07-1.47-3.62-3.51-4.67-6.12-.53-1.42-.92-3-1.17-4.72-.25-1.72-.37-3.59-.37-5.59,0-2.59.14-4.92.41-6.99s.7-3.86,1.29-5.35c1.01-2.47,2.48-4.35,4.41-5.64s4.23-1.94,6.9-1.94c1.76,0,3.37.29,4.81.86,1.44.57,2.7,1.41,3.79,2.52,1.09,1.11,2.01,2.47,2.76,4.1,1.3,2.83,1.95,6.83,1.95,12.01ZM604.71,184.61c0-3.14-.19-5.7-.57-7.7-.38-2-1.01-3.5-1.9-4.52-.89-1.02-2.12-1.53-3.7-1.53-2.26,0-3.83,1.14-4.72,3.42s-1.32,5.79-1.32,10.54c0,3.22.19,5.86.57,7.92s1.01,3.61,1.9,4.67c.89,1.05,2.1,1.58,3.62,1.58s2.81-.55,3.7-1.65c.89-1.1,1.52-2.66,1.88-4.7.36-2.04.54-4.71.54-8.02Z"/>
        <path class="cls-15" d="M618.61,179.55c0-1.22.38-2.16,1.14-2.83.76-.67,1.68-1,2.76-1s1.95.34,2.7,1.02c.75.68,1.13,1.62,1.13,2.81,0,.96-.41,1.84-1.23,2.65-.82.81-1.71,1.21-2.67,1.21-1.04,0-1.95-.39-2.7-1.16-.75-.77-1.13-1.67-1.13-2.7ZM622.52,204.25c-1.06,0-1.98-.34-2.75-1.03-.77-.69-1.16-1.65-1.16-2.88,0-1.05.37-1.94,1.11-2.7.74-.75,1.65-1.13,2.72-1.13s2,.37,2.76,1.12c.76.75,1.14,1.65,1.14,2.71,0,1.22-.38,2.17-1.14,2.87-.76.69-1.66,1.04-2.69,1.04Z"/>
        <path class="cls-15" d="M659.51,185.13c0,2.81-.17,5.23-.51,7.25-.34,2.02-.98,3.86-1.9,5.5-1.17,2.02-2.67,3.58-4.52,4.68-1.85,1.1-3.91,1.65-6.17,1.65-2.61,0-4.94-.74-7.01-2.21-2.07-1.47-3.62-3.51-4.67-6.12-.53-1.42-.92-3-1.17-4.72-.25-1.72-.37-3.59-.37-5.59,0-2.59.14-4.92.41-6.99s.7-3.86,1.29-5.35c1.01-2.47,2.48-4.35,4.41-5.64s4.23-1.94,6.9-1.94c1.76,0,3.37.29,4.81.86,1.44.57,2.7,1.41,3.79,2.52,1.09,1.11,2.01,2.47,2.76,4.1,1.3,2.83,1.95,6.83,1.95,12.01ZM652.47,184.61c0-3.14-.19-5.7-.57-7.7-.38-2-1.01-3.5-1.9-4.52-.89-1.02-2.12-1.53-3.7-1.53-2.26,0-3.83,1.14-4.72,3.42s-1.32,5.79-1.32,10.54c0,3.22.19,5.86.57,7.92s1.01,3.61,1.9,4.67c.89,1.05,2.1,1.58,3.62,1.58s2.81-.55,3.7-1.65c.89-1.1,1.52-2.66,1.88-4.7.36-2.04.54-4.71.54-8.02Z"/>
        <path class="cls-15" d="M690.8,185.13c0,2.81-.17,5.23-.51,7.25-.34,2.02-.98,3.86-1.9,5.5-1.17,2.02-2.67,3.58-4.52,4.68-1.85,1.1-3.91,1.65-6.17,1.65-2.61,0-4.94-.74-7.01-2.21-2.07-1.47-3.62-3.51-4.67-6.12-.53-1.42-.92-3-1.17-4.72-.25-1.72-.37-3.59-.37-5.59,0-2.59.14-4.92.41-6.99s.7-3.86,1.29-5.35c1.01-2.47,2.48-4.35,4.41-5.64s4.23-1.94,6.9-1.94c1.76,0,3.37.29,4.81.86,1.44.57,2.7,1.41,3.79,2.52,1.09,1.11,2.01,2.47,2.76,4.1,1.3,2.83,1.95,6.83,1.95,12.01ZM683.76,184.61c0-3.14-.19-5.7-.57-7.7-.38-2-1.01-3.5-1.9-4.52-.89-1.02-2.12-1.53-3.7-1.53-2.26,0-3.83,1.14-4.72,3.42s-1.32,5.79-1.32,10.54c0,3.22.19,5.86.57,7.92s1.01,3.61,1.9,4.67c.89,1.05,2.1,1.58,3.62,1.58s2.81-.55,3.7-1.65c.89-1.1,1.52-2.66,1.88-4.7.36-2.04.54-4.71.54-8.02Z"/>
        <path class="cls-15" d="M697.66,179.55c0-1.22.38-2.16,1.14-2.83.76-.67,1.68-1,2.76-1s1.95.34,2.7,1.02c.75.68,1.13,1.62,1.13,2.81,0,.96-.41,1.84-1.23,2.65-.82.81-1.71,1.21-2.67,1.21-1.04,0-1.95-.39-2.7-1.16-.75-.77-1.13-1.67-1.13-2.7ZM701.57,204.25c-1.06,0-1.98-.34-2.75-1.03-.77-.69-1.16-1.65-1.16-2.88,0-1.05.37-1.94,1.11-2.7.74-.75,1.65-1.13,2.72-1.13s2,.37,2.76,1.12c.76.75,1.14,1.65,1.14,2.71,0,1.22-.38,2.17-1.14,2.87-.76.69-1.66,1.04-2.69,1.04Z"/>
        <path class="cls-15" d="M738.56,185.13c0,2.81-.17,5.23-.51,7.25-.34,2.02-.98,3.86-1.9,5.5-1.17,2.02-2.67,3.58-4.52,4.68-1.85,1.1-3.91,1.65-6.17,1.65-2.61,0-4.94-.74-7.01-2.21-2.07-1.47-3.62-3.51-4.67-6.12-.53-1.42-.92-3-1.17-4.72-.25-1.72-.37-3.59-.37-5.59,0-2.59.14-4.92.41-6.99s.7-3.86,1.29-5.35c1.01-2.47,2.48-4.35,4.41-5.64s4.23-1.94,6.9-1.94c1.76,0,3.37.29,4.81.86,1.44.57,2.7,1.41,3.79,2.52,1.09,1.11,2.01,2.47,2.76,4.1,1.3,2.83,1.95,6.83,1.95,12.01ZM731.52,184.61c0-3.14-.19-5.7-.57-7.7-.38-2-1.01-3.5-1.9-4.52-.89-1.02-2.12-1.53-3.7-1.53-2.26,0-3.83,1.14-4.72,3.42s-1.32,5.79-1.32,10.54c0,3.22.19,5.86.57,7.92s1.01,3.61,1.9,4.67c.89,1.05,2.1,1.58,3.62,1.58s2.81-.55,3.7-1.65c.89-1.1,1.52-2.66,1.88-4.7.36-2.04.54-4.71.54-8.02Z"/>
        <path class="cls-15" d="M755.92,200.09v-23.39c-4.35,3.34-7.28,5.01-8.79,5.01-.72,0-1.36-.29-1.92-.86-.56-.57-.83-1.24-.83-1.99,0-.87.27-1.52.82-1.93.55-.41,1.52-.94,2.91-1.59,2.07-.98,3.73-2,4.97-3.08,1.24-1.08,2.34-2.29,3.3-3.62s1.58-2.16,1.88-2.47c.29-.31.84-.46,1.65-.46.91,0,1.64.35,2.18,1.05s.82,1.67.82,2.9v29.43c0,3.44-1.17,5.17-3.52,5.17-1.05,0-1.89-.35-2.52-1.05-.63-.7-.95-1.74-.95-3.11Z"/>
      </g>
      <g>
        <path class="cls-6" d="M671.15,240.06h-2.67v12.11c0,1.59-.35,2.77-1.05,3.52s-1.62,1.13-2.75,1.13c-1.22,0-2.16-.39-2.83-1.18-.67-.79-1-1.94-1-3.47v-29c0-1.65.37-2.84,1.11-3.57.74-.74,1.93-1.11,3.57-1.11h12.42c1.71,0,3.18.07,4.4.22,1.22.15,2.31.44,3.29.89,1.18.5,2.23,1.21,3.14,2.13.91.93,1.6,2,2.07,3.23.47,1.23.71,2.52.71,3.89,0,2.81-.79,5.06-2.38,6.74s-3.99,2.87-7.21,3.57c1.35.72,2.65,1.78,3.88,3.19,1.23,1.41,2.33,2.9,3.3,4.49.97,1.59,1.72,3.02,2.26,4.29.54,1.28.81,2.16.81,2.63s-.16.99-.48,1.48c-.32.49-.75.87-1.3,1.16-.55.28-1.18.42-1.9.42-.86,0-1.58-.2-2.16-.6-.58-.4-1.08-.91-1.5-1.53-.42-.62-.99-1.52-1.71-2.72l-3.06-5.09c-1.1-1.87-2.08-3.29-2.94-4.27-.87-.98-1.74-1.65-2.63-2.01-.89-.36-2.01-.54-3.37-.54ZM675.52,224.22h-7.04v10.36h6.84c1.83,0,3.38-.16,4.63-.48s2.21-.86,2.87-1.62c.66-.76.99-1.81.99-3.15,0-1.04-.27-1.97-.8-2.76-.53-.8-1.27-1.39-2.21-1.79-.89-.38-2.65-.57-5.27-.57Z"/>
        <path class="cls-6" d="M723.59,224.37h-17.2v9.25h15.84c1.17,0,2.03.26,2.61.78.57.52.86,1.21.86,2.07s-.28,1.56-.85,2.09c-.57.54-1.44.81-2.62.81h-15.84v10.72h17.79c1.2,0,2.1.28,2.71.84.61.56.91,1.3.91,2.22s-.3,1.62-.91,2.17c-.61.56-1.51.84-2.71.84h-20.75c-1.66,0-2.86-.37-3.59-1.11-.73-.74-1.09-1.93-1.09-3.57v-28.33c0-1.1.16-1.99.49-2.69.33-.69.84-1.2,1.53-1.52.69-.32,1.58-.48,2.66-.48h20.15c1.22,0,2.12.27,2.71.81.59.54.89,1.25.89,2.12s-.29,1.61-.89,2.15c-.59.54-1.5.81-2.71.81Z"/>
        <path class="cls-6" d="M765.99,244.27c0,1.2-.3,2.5-.89,3.89-.59,1.4-1.52,2.77-2.79,4.11-1.27,1.35-2.89,2.44-4.86,3.28-1.97.84-4.27,1.26-6.89,1.26-1.99,0-3.8-.19-5.42-.57-1.63-.38-3.11-.96-4.43-1.76-1.33-.8-2.55-1.85-3.66-3.15-.99-1.18-1.84-2.51-2.54-3.97-.7-1.47-1.23-3.03-1.58-4.69-.35-1.66-.53-3.43-.53-5.3,0-3.03.44-5.75,1.32-8.15.88-2.4,2.15-4.45,3.79-6.16,1.64-1.71,3.57-3,5.78-3.9,2.21-.89,4.57-1.34,7.07-1.34,3.05,0,5.77.61,8.15,1.83s4.21,2.72,5.48,4.51c1.27,1.79,1.9,3.48,1.9,5.08,0,.87-.31,1.65-.92,2.31-.62.67-1.36,1-2.24,1-.98,0-1.71-.23-2.2-.69-.49-.46-1.03-1.26-1.63-2.39-.99-1.87-2.16-3.26-3.51-4.19-1.35-.93-3-1.39-4.97-1.39-3.14,0-5.63,1.19-7.49,3.57-1.86,2.38-2.79,5.77-2.79,10.15,0,2.93.41,5.37,1.23,7.31.82,1.95,1.99,3.4,3.5,4.36,1.51.96,3.27,1.44,5.3,1.44,2.19,0,4.05-.54,5.57-1.63,1.52-1.09,2.66-2.69,3.43-4.79.33-.99.73-1.8,1.21-2.43.48-.63,1.25-.94,2.31-.94.91,0,1.69.32,2.34.95.65.63.98,1.42.98,2.37Z"/>
      </g>
    </g>
    <circle class="cls-2" cx="512" cy="858.38" r="59.05"/>
    <path class="cls-3" d="M278.24,540.21c-.81,3.27-2.61,5.96-4.95,7.49-1.34.88-2.86,1.37-4.47,1.37-5.47,0-9.9-5.73-9.9-12.8,0-2.29.46-4.44,1.28-6.29.68-1.57,1.61-2.94,2.73-4,1.64-1.58,3.68-2.52,5.89-2.52"/>
    <path class="cls-3" d="M285.88,525.47c-6.3,0-11.57,5.49-12.97,12.87-.24,1.24-.36,2.54-.36,3.88,0,1.92.26,3.76.74,5.48,1.8,6.56,6.76,11.27,12.59,11.27,7.24,0,13.13-7.24,13.33-16.27"/>
    <path class="cls-3" d="M590.56,517.44c2.66,0,5.11,1.03,7.14,2.79,3.25,2.81,5.38,7.5,5.38,12.8,0,8.61-5.61,15.59-12.52,15.59-3.92,0-7.42-2.24-9.72-5.76"/>
  </g>
</svg>