<?xml version="1.0" encoding="UTF-8"?>
<svg id="Capa_1" xmlns="http://www.w3.org/2000/svg" version="1.1" xmlns:xlink="http://www.w3.org/1999/xlink" viewBox="0 0 1080 1080">
  <!-- Generator: Adobe Illustrator 29.5.1, SVG Export Plug-In . SVG Version: 2.1.0 Build 141)  -->
  <defs>
    <style>
      .st0 {
        fill: url(#Degradado_sin_nombre_151);
      }

      .st1 {
        fill: #181325;
      }

      .st2 {
        fill: url(#Degradado_sin_nombre_152);
      }

      .st3 {
        fill: url(#Degradado_sin_nombre_15);
      }
    </style>
    <linearGradient id="Degradado_sin_nombre_15" data-name="Degradado sin nombre 15" x1="4.19" y1="214.73" x2="1074.21" y2="864.3" gradientUnits="userSpaceOnUse">
      <stop offset="0" stop-color="#ea8cff"/>
      <stop offset="1" stop-color="#b5e7f7"/>
    </linearGradient>
    <linearGradient id="Degradado_sin_nombre_151" data-name="Degradado sin nombre 15" x1="-38.7" y1="285.38" x2="1031.32" y2="934.96" xlink:href="#Degradado_sin_nombre_15"/>
    <linearGradient id="Degradado_sin_nombre_152" data-name="Degradado sin nombre 15" x1="40.87" y1="154.32" x2="1110.88" y2="803.89" xlink:href="#Degradado_sin_nombre_15"/>
  </defs>
  <circle class="st1" cx="540" cy="540" r="505"/>
  <g>
    <path class="st3" d="M540,95.89c60,0,118.15,11.73,172.84,34.86,52.87,22.36,100.38,54.4,141.19,95.21,40.82,40.82,72.85,88.32,95.21,141.19,23.13,54.69,34.86,112.84,34.86,172.84s-11.73,118.15-34.86,172.84c-22.36,52.87-54.4,100.38-95.21,141.19-40.82,40.82-88.32,72.85-141.19,95.21-54.69,23.13-112.84,34.86-172.84,34.86s-118.15-11.73-172.84-34.86c-52.87-22.36-100.38-54.4-141.19-95.21-40.82-40.82-72.85-88.32-95.21-141.19-23.13-54.69-34.86-112.84-34.86-172.84s11.73-118.15,34.86-172.84c22.36-52.87,54.4-100.38,95.21-141.19,40.82-40.82,88.32-72.85,141.19-95.21,54.69-23.13,112.84-34.86,172.84-34.86M540,0C241.77,0,0,241.77,0,540s241.77,540,540,540,540-241.77,540-540S838.23,0,540,0h0Z"/>
    <g>
      <path class="st0" d="M523.39,695.08h-65.58c-13.29,0-17.28-2.22-24.81-12.85l-112.1-160.4h-2.66v173.25h-80.2v-310.16h64.25c17.28,0,16.84,1.77,21.71,8.42,2.66,4.43,102.35,143.56,116.97,166.16h2.22v-174.58h80.2v310.16Z"/>
      <path class="st2" d="M573.45,384.92h172.36c59.82,0,90.39,34.12,90.39,80.2v19.05c-.44,24.37-15.06,39.43-37.22,48.3,24.37,10.19,42.09,27.92,42.98,53.61v28.36c0,46.08-31.02,80.64-90.83,80.64h-177.68v-310.16ZM759.54,476.64c0-19.94-8.86-28.8-31.9-28.8h-74v62.03h73.55c22.6,0,32.35-7.98,32.35-24.37v-8.86ZM653.65,631.72h79.31c23.04,0,31.9-11.08,31.9-31.02v-10.63c0-16.39-9.75-25.7-32.79-25.7h-78.43v67.35Z"/>
    </g>
  </g>
</svg>